%TF.GenerationSoftware,KiCad,Pcbnew,9.0.2*%
%TF.CreationDate,2025-06-25T22:40:44-04:00*%
%TF.ProjectId,NK_BMS,4e4b5f42-4d53-42e6-9b69-6361645f7063,rev?*%
%TF.SameCoordinates,Original*%
%TF.FileFunction,Copper,L1,Top*%
%TF.FilePolarity,Positive*%
%FSLAX46Y46*%
G04 Gerber Fmt 4.6, Leading zero omitted, Abs format (unit mm)*
G04 Created by KiCad (PCBNEW 9.0.2) date 2025-06-25 22:40:44*
%MOMM*%
%LPD*%
G01*
G04 APERTURE LIST*
G04 Aperture macros list*
%AMRoundRect*
0 Rectangle with rounded corners*
0 $1 Rounding radius*
0 $2 $3 $4 $5 $6 $7 $8 $9 X,Y pos of 4 corners*
0 Add a 4 corners polygon primitive as box body*
4,1,4,$2,$3,$4,$5,$6,$7,$8,$9,$2,$3,0*
0 Add four circle primitives for the rounded corners*
1,1,$1+$1,$2,$3*
1,1,$1+$1,$4,$5*
1,1,$1+$1,$6,$7*
1,1,$1+$1,$8,$9*
0 Add four rect primitives between the rounded corners*
20,1,$1+$1,$2,$3,$4,$5,0*
20,1,$1+$1,$4,$5,$6,$7,0*
20,1,$1+$1,$6,$7,$8,$9,0*
20,1,$1+$1,$8,$9,$2,$3,0*%
G04 Aperture macros list end*
%TA.AperFunction,SMDPad,CuDef*%
%ADD10RoundRect,0.243750X0.456250X-0.243750X0.456250X0.243750X-0.456250X0.243750X-0.456250X-0.243750X0*%
%TD*%
%TA.AperFunction,ComponentPad*%
%ADD11C,1.270000*%
%TD*%
%TA.AperFunction,ComponentPad*%
%ADD12RoundRect,0.250000X1.250000X-1.250000X1.250000X1.250000X-1.250000X1.250000X-1.250000X-1.250000X0*%
%TD*%
%TA.AperFunction,ComponentPad*%
%ADD13C,3.000000*%
%TD*%
%TA.AperFunction,ComponentPad*%
%ADD14R,4.000000X2.000000*%
%TD*%
%TA.AperFunction,ComponentPad*%
%ADD15O,3.300000X2.000000*%
%TD*%
%TA.AperFunction,ComponentPad*%
%ADD16O,2.000000X3.500000*%
%TD*%
%TA.AperFunction,SMDPad,CuDef*%
%ADD17RoundRect,0.250000X-0.450000X0.262500X-0.450000X-0.262500X0.450000X-0.262500X0.450000X0.262500X0*%
%TD*%
%TA.AperFunction,ViaPad*%
%ADD18C,0.600000*%
%TD*%
%TA.AperFunction,Conductor*%
%ADD19C,0.508000*%
%TD*%
%TA.AperFunction,Conductor*%
%ADD20C,1.524000*%
%TD*%
%TA.AperFunction,Conductor*%
%ADD21C,0.200000*%
%TD*%
G04 APERTURE END LIST*
D10*
%TO.P,D2,1,K*%
%TO.N,Net-(D2-K)*%
X131300000Y-83137500D03*
%TO.P,D2,2,A*%
%TO.N,Net-(D2-A)*%
X131300000Y-81262500D03*
%TD*%
D11*
%TO.P,F1,1*%
%TO.N,Net-(CN1-Pin_1)*%
X123250000Y-81100000D03*
%TO.P,F1,2*%
%TO.N,+5V*%
X128350000Y-82700000D03*
%TD*%
D12*
%TO.P,CN2,1,Pin_1*%
%TO.N,/BAT+*%
X141100000Y-118882500D03*
D13*
%TO.P,CN2,2,Pin_2*%
%TO.N,GND*%
X141100000Y-69982500D03*
%TD*%
D14*
%TO.P,CN1,1,Pin_1*%
%TO.N,Net-(CN1-Pin_1)*%
X127500000Y-78000000D03*
D15*
%TO.P,CN1,2,Pin_2*%
%TO.N,GND*%
X127500000Y-72000000D03*
D16*
%TO.P,CN1,MP*%
%TO.N,N/C*%
X132000000Y-71000000D03*
X123000000Y-71000000D03*
%TD*%
D17*
%TO.P,R1,1*%
%TO.N,Net-(U1-PROG)*%
X128500000Y-86237500D03*
%TO.P,R1,2*%
%TO.N,GND*%
X128500000Y-88062500D03*
%TD*%
D18*
%TO.N,GND*%
X131900000Y-87200000D03*
X129800000Y-88200000D03*
X129800000Y-87150000D03*
X129800000Y-86200000D03*
X118700000Y-114300000D03*
X117700000Y-111300000D03*
X118700000Y-112300000D03*
X120700000Y-111300000D03*
X119700000Y-113300000D03*
X118700000Y-113300000D03*
X117700000Y-112300000D03*
X117700000Y-113300000D03*
X120700000Y-114300000D03*
X120700000Y-110300000D03*
X120700000Y-108300000D03*
X117700000Y-105300000D03*
X119700000Y-103300000D03*
X120700000Y-104300000D03*
X118700000Y-106300000D03*
X117700000Y-108300000D03*
X119700000Y-110300000D03*
X118700000Y-103300000D03*
X118700000Y-111300000D03*
X119700000Y-104300000D03*
X117700000Y-109300000D03*
X120700000Y-107300000D03*
X118700000Y-108300000D03*
X117700000Y-104300000D03*
X119700000Y-106300000D03*
X120700000Y-105300000D03*
X117700000Y-110300000D03*
X119700000Y-108300000D03*
X118700000Y-107300000D03*
X117700000Y-103300000D03*
X120700000Y-109300000D03*
X118700000Y-104300000D03*
X118700000Y-109300000D03*
X117700000Y-106300000D03*
X118700000Y-110300000D03*
X119700000Y-105300000D03*
X120700000Y-112300000D03*
X117700000Y-107300000D03*
X119700000Y-112300000D03*
X120700000Y-113300000D03*
X120700000Y-106300000D03*
X117700000Y-114300000D03*
X119700000Y-107300000D03*
X120700000Y-103300000D03*
X119700000Y-114300000D03*
X119700000Y-111300000D03*
X118700000Y-105300000D03*
X119700000Y-109300000D03*
%TO.N,Net-(D2-A)*%
X131300000Y-81300000D03*
%TO.N,Net-(D2-K)*%
X131200000Y-86200000D03*
%TO.N,GND*%
X122700000Y-114300000D03*
X125700000Y-104300000D03*
X123700000Y-109300000D03*
X130700000Y-109300000D03*
X125700000Y-111300000D03*
X126700000Y-104300000D03*
X125700000Y-112300000D03*
X124700000Y-103300000D03*
X127700000Y-112300000D03*
X123700000Y-112300000D03*
X121700000Y-107300000D03*
X130700000Y-112300000D03*
X129700000Y-110300000D03*
X121700000Y-114300000D03*
X124700000Y-112300000D03*
X123700000Y-107300000D03*
X129700000Y-104300000D03*
X129700000Y-109300000D03*
X124700000Y-106300000D03*
X124700000Y-113300000D03*
X130700000Y-111300000D03*
X128700000Y-113300000D03*
X123700000Y-105300000D03*
X123700000Y-111300000D03*
X127700000Y-110300000D03*
X129700000Y-114300000D03*
X127700000Y-103300000D03*
X122700000Y-105300000D03*
X123700000Y-114300000D03*
X122700000Y-110300000D03*
X121700000Y-106300000D03*
X122700000Y-109300000D03*
X129700000Y-112300000D03*
X122700000Y-104300000D03*
X126700000Y-108300000D03*
X124700000Y-109300000D03*
X122700000Y-107300000D03*
X123700000Y-106300000D03*
X121700000Y-103300000D03*
X127700000Y-108300000D03*
X129700000Y-111300000D03*
X126700000Y-114300000D03*
X128700000Y-106300000D03*
X121700000Y-104300000D03*
X125700000Y-107300000D03*
X123700000Y-108300000D03*
X125700000Y-108300000D03*
X127700000Y-106300000D03*
X125700000Y-110300000D03*
X126700000Y-103300000D03*
X121700000Y-110300000D03*
X126700000Y-109300000D03*
X124700000Y-105300000D03*
X126700000Y-111300000D03*
X122700000Y-108300000D03*
X121700000Y-108300000D03*
X128700000Y-111300000D03*
X122700000Y-111300000D03*
X129700000Y-113300000D03*
X125700000Y-113300000D03*
X127700000Y-104300000D03*
X128700000Y-109300000D03*
X128700000Y-107300000D03*
X121700000Y-109300000D03*
X124700000Y-107300000D03*
X126700000Y-106300000D03*
X128700000Y-110300000D03*
X127700000Y-109300000D03*
X130700000Y-114300000D03*
X122700000Y-103300000D03*
X128700000Y-108300000D03*
X130700000Y-110300000D03*
X128700000Y-114300000D03*
X130700000Y-108300000D03*
X125700000Y-103300000D03*
X130700000Y-103300000D03*
X122700000Y-106300000D03*
X124700000Y-104300000D03*
X128700000Y-105300000D03*
X128700000Y-103300000D03*
X127700000Y-113300000D03*
X123700000Y-103300000D03*
X123700000Y-104300000D03*
X129700000Y-105300000D03*
X130700000Y-106300000D03*
X123700000Y-110300000D03*
X129700000Y-108300000D03*
X128700000Y-104300000D03*
X121700000Y-105300000D03*
X130700000Y-105300000D03*
X126700000Y-110300000D03*
X127700000Y-105300000D03*
X124700000Y-108300000D03*
X127700000Y-107300000D03*
X126700000Y-107300000D03*
X125700000Y-105300000D03*
X125700000Y-106300000D03*
X129700000Y-103300000D03*
X127700000Y-111300000D03*
X121700000Y-112300000D03*
X130700000Y-113300000D03*
X130700000Y-104300000D03*
X125700000Y-114300000D03*
X126700000Y-113300000D03*
X124700000Y-110300000D03*
X124700000Y-114300000D03*
X121700000Y-113300000D03*
X122700000Y-113300000D03*
X123700000Y-113300000D03*
X126700000Y-105300000D03*
X129700000Y-107300000D03*
X130700000Y-107300000D03*
X126700000Y-112300000D03*
X125700000Y-109300000D03*
X121700000Y-111300000D03*
X128700000Y-112300000D03*
X122700000Y-112300000D03*
X127700000Y-114300000D03*
X124700000Y-111300000D03*
X129700000Y-106300000D03*
%TO.N,Net-(U1-PROG)*%
X128450000Y-86200000D03*
%TD*%
D19*
%TO.N,Net-(D2-K)*%
X131300000Y-86000000D02*
X131300000Y-83137500D01*
X131200000Y-86100000D02*
X131300000Y-86000000D01*
X131200000Y-86200000D02*
X131200000Y-86100000D01*
D20*
%TO.N,Net-(CN1-Pin_1)*%
X123250000Y-78850000D02*
X123250000Y-81100000D01*
X127500000Y-78000000D02*
X124100000Y-78000000D01*
X124100000Y-78000000D02*
X123250000Y-78850000D01*
D21*
%TO.N,Net-(U1-PROG)*%
X128487500Y-86237500D02*
X128450000Y-86200000D01*
X128500000Y-86237500D02*
X128487500Y-86237500D01*
%TD*%
%TA.AperFunction,Conductor*%
%TO.N,GND*%
G36*
X126781544Y-68020185D02*
G01*
X126827299Y-68072989D01*
X126837243Y-68142147D01*
X126808218Y-68205703D01*
X126802186Y-68212181D01*
X126684025Y-68330341D01*
X126684024Y-68330342D01*
X126569058Y-68502403D01*
X126489870Y-68693579D01*
X126489868Y-68693587D01*
X126449500Y-68896530D01*
X126449500Y-69103469D01*
X126489868Y-69306412D01*
X126489870Y-69306420D01*
X126569058Y-69497596D01*
X126684024Y-69669657D01*
X126830342Y-69815975D01*
X126830345Y-69815977D01*
X127002402Y-69930941D01*
X127193580Y-70010130D01*
X127396530Y-70050499D01*
X127396534Y-70050500D01*
X127396535Y-70050500D01*
X127603466Y-70050500D01*
X127603467Y-70050499D01*
X127806420Y-70010130D01*
X127997598Y-69930941D01*
X128169655Y-69815977D01*
X128315977Y-69669655D01*
X128430941Y-69497598D01*
X128510130Y-69306420D01*
X128550500Y-69103465D01*
X128550500Y-68896535D01*
X128510130Y-68693580D01*
X128430941Y-68502402D01*
X128315977Y-68330345D01*
X128315975Y-68330342D01*
X128197814Y-68212181D01*
X128164329Y-68150858D01*
X128169313Y-68081166D01*
X128211185Y-68025233D01*
X128276649Y-68000816D01*
X128285495Y-68000500D01*
X154135736Y-68000500D01*
X154202775Y-68020185D01*
X154211595Y-68026411D01*
X154420317Y-68187872D01*
X154431465Y-68197616D01*
X154660046Y-68422895D01*
X154669377Y-68433185D01*
X154795873Y-68589461D01*
X154875058Y-68687287D01*
X154882679Y-68697780D01*
X154979507Y-68846941D01*
X154999499Y-68913887D01*
X154999500Y-68914456D01*
X154999500Y-121211857D01*
X154981203Y-121276687D01*
X154949833Y-121327835D01*
X154941138Y-121340241D01*
X154717662Y-121620926D01*
X154707636Y-121632065D01*
X154493189Y-121843134D01*
X154482023Y-121852881D01*
X154325759Y-121973622D01*
X154260675Y-121999035D01*
X154249943Y-121999500D01*
X117565653Y-121999500D01*
X117498614Y-121979815D01*
X117492355Y-121975517D01*
X117307471Y-121840023D01*
X117296479Y-121830952D01*
X117062038Y-121613670D01*
X117052385Y-121603661D01*
X116842300Y-121359818D01*
X116834024Y-121349076D01*
X116722281Y-121186355D01*
X116700558Y-121119948D01*
X116700500Y-121116160D01*
X116700500Y-119797648D01*
X117499500Y-119797648D01*
X117499500Y-120002351D01*
X117531522Y-120204534D01*
X117594781Y-120399223D01*
X117687715Y-120581613D01*
X117808028Y-120747213D01*
X117952786Y-120891971D01*
X118090420Y-120991966D01*
X118118390Y-121012287D01*
X118234607Y-121071503D01*
X118300776Y-121105218D01*
X118300778Y-121105218D01*
X118300781Y-121105220D01*
X118405137Y-121139127D01*
X118495465Y-121168477D01*
X118596557Y-121184488D01*
X118697648Y-121200500D01*
X118697649Y-121200500D01*
X118902351Y-121200500D01*
X118902352Y-121200500D01*
X119104534Y-121168477D01*
X119299219Y-121105220D01*
X119481610Y-121012287D01*
X119574590Y-120944732D01*
X119647213Y-120891971D01*
X119647215Y-120891968D01*
X119647219Y-120891966D01*
X119791966Y-120747219D01*
X119791968Y-120747215D01*
X119791971Y-120747213D01*
X119898085Y-120601157D01*
X119912287Y-120581610D01*
X120005220Y-120399219D01*
X120068477Y-120204534D01*
X120100500Y-120002352D01*
X120100500Y-119797648D01*
X120068477Y-119595466D01*
X120005220Y-119400781D01*
X120005218Y-119400778D01*
X120005218Y-119400776D01*
X119971503Y-119334607D01*
X119912287Y-119218390D01*
X119904556Y-119207749D01*
X119791971Y-119052786D01*
X119647213Y-118908028D01*
X119481613Y-118787715D01*
X119481612Y-118787714D01*
X119481610Y-118787713D01*
X119424653Y-118758691D01*
X119299223Y-118694781D01*
X119104534Y-118631522D01*
X118929995Y-118603878D01*
X118902352Y-118599500D01*
X118697648Y-118599500D01*
X118673329Y-118603351D01*
X118495465Y-118631522D01*
X118300776Y-118694781D01*
X118118386Y-118787715D01*
X117952786Y-118908028D01*
X117808028Y-119052786D01*
X117687715Y-119218386D01*
X117594781Y-119400776D01*
X117531522Y-119595465D01*
X117499500Y-119797648D01*
X116700500Y-119797648D01*
X116700500Y-117582483D01*
X139099500Y-117582483D01*
X139099500Y-120182501D01*
X139099501Y-120182518D01*
X139110000Y-120285296D01*
X139110001Y-120285299D01*
X139147751Y-120399219D01*
X139165186Y-120451834D01*
X139257288Y-120601156D01*
X139381344Y-120725212D01*
X139530666Y-120817314D01*
X139697203Y-120872499D01*
X139799991Y-120883000D01*
X142400008Y-120882999D01*
X142502797Y-120872499D01*
X142669334Y-120817314D01*
X142818656Y-120725212D01*
X142942712Y-120601156D01*
X143034814Y-120451834D01*
X143089999Y-120285297D01*
X143100500Y-120182509D01*
X143100500Y-119897648D01*
X151599500Y-119897648D01*
X151599500Y-120102351D01*
X151631522Y-120304534D01*
X151694781Y-120499223D01*
X151787715Y-120681613D01*
X151908028Y-120847213D01*
X152052786Y-120991971D01*
X152207749Y-121104556D01*
X152218390Y-121112287D01*
X152328669Y-121168477D01*
X152400776Y-121205218D01*
X152400778Y-121205218D01*
X152400781Y-121205220D01*
X152505137Y-121239127D01*
X152595465Y-121268477D01*
X152647301Y-121276687D01*
X152797648Y-121300500D01*
X152797649Y-121300500D01*
X153002351Y-121300500D01*
X153002352Y-121300500D01*
X153204534Y-121268477D01*
X153399219Y-121205220D01*
X153581610Y-121112287D01*
X153674590Y-121044732D01*
X153747213Y-120991971D01*
X153747215Y-120991968D01*
X153747219Y-120991966D01*
X153891966Y-120847219D01*
X153891968Y-120847215D01*
X153891971Y-120847213D01*
X153944732Y-120774590D01*
X154012287Y-120681610D01*
X154105220Y-120499219D01*
X154168477Y-120304534D01*
X154200500Y-120102352D01*
X154200500Y-119897648D01*
X154168477Y-119695466D01*
X154105220Y-119500781D01*
X154105218Y-119500778D01*
X154105218Y-119500776D01*
X154054265Y-119400776D01*
X154012287Y-119318390D01*
X154004556Y-119307749D01*
X153891971Y-119152786D01*
X153747213Y-119008028D01*
X153581613Y-118887715D01*
X153581612Y-118887714D01*
X153581610Y-118887713D01*
X153524653Y-118858691D01*
X153399223Y-118794781D01*
X153204534Y-118731522D01*
X153029995Y-118703878D01*
X153002352Y-118699500D01*
X152797648Y-118699500D01*
X152773329Y-118703351D01*
X152595465Y-118731522D01*
X152400776Y-118794781D01*
X152218386Y-118887715D01*
X152052786Y-119008028D01*
X151908028Y-119152786D01*
X151787715Y-119318386D01*
X151694781Y-119500776D01*
X151631522Y-119695465D01*
X151599500Y-119897648D01*
X143100500Y-119897648D01*
X143100499Y-118794781D01*
X143100499Y-117582498D01*
X143100498Y-117582481D01*
X143089999Y-117479703D01*
X143089998Y-117479700D01*
X143034814Y-117313166D01*
X142942712Y-117163844D01*
X142818656Y-117039788D01*
X142669334Y-116947686D01*
X142502797Y-116892501D01*
X142502795Y-116892500D01*
X142400010Y-116882000D01*
X139799998Y-116882000D01*
X139799981Y-116882001D01*
X139697203Y-116892500D01*
X139697200Y-116892501D01*
X139530668Y-116947685D01*
X139530663Y-116947687D01*
X139381342Y-117039789D01*
X139257289Y-117163842D01*
X139165187Y-117313163D01*
X139165186Y-117313166D01*
X139110001Y-117479703D01*
X139110001Y-117479704D01*
X139110000Y-117479704D01*
X139099500Y-117582483D01*
X116700500Y-117582483D01*
X116700500Y-108261211D01*
X139249500Y-108261211D01*
X139249500Y-108503788D01*
X139281161Y-108744285D01*
X139343947Y-108978604D01*
X139436773Y-109202705D01*
X139436776Y-109202712D01*
X139558064Y-109412789D01*
X139558066Y-109412792D01*
X139558067Y-109412793D01*
X139705733Y-109605236D01*
X139705739Y-109605243D01*
X139877256Y-109776760D01*
X139877262Y-109776765D01*
X140069711Y-109924436D01*
X140279788Y-110045724D01*
X140503900Y-110138554D01*
X140738211Y-110201338D01*
X140918586Y-110225084D01*
X140978711Y-110233000D01*
X140978712Y-110233000D01*
X141221289Y-110233000D01*
X141269388Y-110226667D01*
X141461789Y-110201338D01*
X141696100Y-110138554D01*
X141920212Y-110045724D01*
X142130289Y-109924436D01*
X142322738Y-109776765D01*
X142494265Y-109605238D01*
X142641936Y-109412789D01*
X142763224Y-109202712D01*
X142856054Y-108978600D01*
X142918838Y-108744289D01*
X142950500Y-108503788D01*
X142950500Y-108261212D01*
X142918838Y-108020711D01*
X142856054Y-107786400D01*
X142763224Y-107562288D01*
X142641936Y-107352211D01*
X142494265Y-107159762D01*
X142494260Y-107159756D01*
X142322743Y-106988239D01*
X142322736Y-106988233D01*
X142130293Y-106840567D01*
X142130292Y-106840566D01*
X142130289Y-106840564D01*
X141920212Y-106719276D01*
X141920205Y-106719273D01*
X141696104Y-106626447D01*
X141461785Y-106563661D01*
X141221289Y-106532000D01*
X141221288Y-106532000D01*
X140978712Y-106532000D01*
X140978711Y-106532000D01*
X140738214Y-106563661D01*
X140503895Y-106626447D01*
X140279794Y-106719273D01*
X140279785Y-106719277D01*
X140069706Y-106840567D01*
X139877263Y-106988233D01*
X139877256Y-106988239D01*
X139705739Y-107159756D01*
X139705733Y-107159763D01*
X139558067Y-107352206D01*
X139436777Y-107562285D01*
X139436773Y-107562294D01*
X139343947Y-107786395D01*
X139281161Y-108020714D01*
X139249500Y-108261211D01*
X116700500Y-108261211D01*
X116700500Y-85924983D01*
X127299500Y-85924983D01*
X127299500Y-86550001D01*
X127299501Y-86550019D01*
X127310000Y-86652796D01*
X127310001Y-86652799D01*
X127329052Y-86710289D01*
X127365186Y-86819334D01*
X127457288Y-86968656D01*
X127581344Y-87092712D01*
X127730666Y-87184814D01*
X127897203Y-87239999D01*
X127999991Y-87250500D01*
X129000008Y-87250499D01*
X129000016Y-87250498D01*
X129000019Y-87250498D01*
X129056302Y-87244748D01*
X129102797Y-87239999D01*
X129269334Y-87184814D01*
X129418656Y-87092712D01*
X129542712Y-86968656D01*
X129634814Y-86819334D01*
X129689999Y-86652797D01*
X129700500Y-86550009D01*
X129700499Y-85924992D01*
X129689999Y-85822203D01*
X129634814Y-85655666D01*
X129542712Y-85506344D01*
X129418656Y-85382288D01*
X129269334Y-85290186D01*
X129102797Y-85235001D01*
X129102795Y-85235000D01*
X129000010Y-85224500D01*
X127999998Y-85224500D01*
X127999980Y-85224501D01*
X127897203Y-85235000D01*
X127897200Y-85235001D01*
X127730668Y-85290185D01*
X127730663Y-85290187D01*
X127581342Y-85382289D01*
X127457289Y-85506342D01*
X127365187Y-85655663D01*
X127365185Y-85655668D01*
X127352488Y-85693986D01*
X127310001Y-85822203D01*
X127310001Y-85822204D01*
X127310000Y-85822204D01*
X127299500Y-85924983D01*
X116700500Y-85924983D01*
X116700500Y-82610634D01*
X127214500Y-82610634D01*
X127214500Y-82789365D01*
X127242460Y-82965898D01*
X127242460Y-82965901D01*
X127297689Y-83135878D01*
X127297691Y-83135881D01*
X127378833Y-83295132D01*
X127483889Y-83439728D01*
X127610272Y-83566111D01*
X127754868Y-83671167D01*
X127914119Y-83752309D01*
X127914121Y-83752310D01*
X128072670Y-83803825D01*
X128084103Y-83807540D01*
X128260634Y-83835500D01*
X128260635Y-83835500D01*
X128439365Y-83835500D01*
X128439366Y-83835500D01*
X128615897Y-83807540D01*
X128615900Y-83807539D01*
X128615901Y-83807539D01*
X128785878Y-83752310D01*
X128785878Y-83752309D01*
X128785881Y-83752309D01*
X128945132Y-83671167D01*
X129089728Y-83566111D01*
X129216111Y-83439728D01*
X129321167Y-83295132D01*
X129402309Y-83135881D01*
X129457540Y-82965897D01*
X129485500Y-82789366D01*
X129485500Y-82610634D01*
X129457540Y-82434103D01*
X129457539Y-82434099D01*
X129457539Y-82434098D01*
X129402310Y-82264121D01*
X129402308Y-82264118D01*
X129369639Y-82200000D01*
X129321167Y-82104868D01*
X129216111Y-81960272D01*
X129089728Y-81833889D01*
X128945132Y-81728833D01*
X128785881Y-81647691D01*
X128785878Y-81647689D01*
X128615899Y-81592460D01*
X128498209Y-81573820D01*
X128439366Y-81564500D01*
X128260634Y-81564500D01*
X128201790Y-81573820D01*
X128084101Y-81592460D01*
X128084098Y-81592460D01*
X127914121Y-81647689D01*
X127914118Y-81647691D01*
X127754867Y-81728833D01*
X127610270Y-81833890D01*
X127483890Y-81960270D01*
X127378833Y-82104867D01*
X127297691Y-82264118D01*
X127297689Y-82264121D01*
X127242460Y-82434098D01*
X127242460Y-82434101D01*
X127214500Y-82610634D01*
X116700500Y-82610634D01*
X116700500Y-78750639D01*
X121987500Y-78750639D01*
X121987500Y-81199360D01*
X122018587Y-81395637D01*
X122079993Y-81584629D01*
X122079994Y-81584632D01*
X122153469Y-81728833D01*
X122170213Y-81761694D01*
X122287019Y-81922464D01*
X122427536Y-82062981D01*
X122588306Y-82179787D01*
X122656705Y-82214638D01*
X122765367Y-82270005D01*
X122765370Y-82270006D01*
X122794449Y-82279454D01*
X122954364Y-82331413D01*
X123150639Y-82362500D01*
X123150640Y-82362500D01*
X123349360Y-82362500D01*
X123349361Y-82362500D01*
X123545636Y-82331413D01*
X123734632Y-82270005D01*
X123911694Y-82179787D01*
X124072464Y-82062981D01*
X124212981Y-81922464D01*
X124329787Y-81761694D01*
X124420005Y-81584632D01*
X124481413Y-81395636D01*
X124512500Y-81199361D01*
X124512500Y-80969144D01*
X130099500Y-80969144D01*
X130099500Y-81555855D01*
X130109913Y-81657776D01*
X130164637Y-81822922D01*
X130164642Y-81822933D01*
X130255971Y-81970999D01*
X130255974Y-81971003D01*
X130378996Y-82094025D01*
X130379000Y-82094028D01*
X130379703Y-82094462D01*
X130380083Y-82094885D01*
X130384664Y-82098507D01*
X130384045Y-82099289D01*
X130426428Y-82146410D01*
X130437649Y-82215372D01*
X130409806Y-82279454D01*
X130384544Y-82301342D01*
X130384664Y-82301493D01*
X130381315Y-82304140D01*
X130379703Y-82305538D01*
X130379000Y-82305971D01*
X130378996Y-82305974D01*
X130255974Y-82428996D01*
X130255971Y-82429000D01*
X130164642Y-82577066D01*
X130164637Y-82577077D01*
X130109913Y-82742223D01*
X130099500Y-82844144D01*
X130099500Y-83430855D01*
X130109913Y-83532776D01*
X130164637Y-83697922D01*
X130164642Y-83697933D01*
X130255971Y-83845999D01*
X130255974Y-83846003D01*
X130378997Y-83969026D01*
X130486598Y-84035395D01*
X130533321Y-84087342D01*
X130545500Y-84140933D01*
X130545500Y-85685115D01*
X130543687Y-85693986D01*
X130544647Y-85699633D01*
X130538597Y-85718908D01*
X130535569Y-85733739D01*
X130532522Y-85740886D01*
X130531370Y-85742611D01*
X130517054Y-85777173D01*
X130516807Y-85777753D01*
X130516424Y-85778217D01*
X130505842Y-85798017D01*
X130490610Y-85820814D01*
X130490602Y-85820828D01*
X130430264Y-85966498D01*
X130430261Y-85966510D01*
X130399500Y-86121153D01*
X130399500Y-86278846D01*
X130430261Y-86433489D01*
X130430264Y-86433501D01*
X130490602Y-86579172D01*
X130490609Y-86579185D01*
X130578210Y-86710288D01*
X130578213Y-86710292D01*
X130689707Y-86821786D01*
X130689711Y-86821789D01*
X130820814Y-86909390D01*
X130820827Y-86909397D01*
X130966498Y-86969735D01*
X130966503Y-86969737D01*
X131121153Y-87000499D01*
X131121156Y-87000500D01*
X131121158Y-87000500D01*
X131278844Y-87000500D01*
X131278845Y-87000499D01*
X131433497Y-86969737D01*
X131579179Y-86909394D01*
X131710289Y-86821789D01*
X131821789Y-86710289D01*
X131909394Y-86579179D01*
X131969737Y-86433497D01*
X131997505Y-86293891D01*
X132004556Y-86270652D01*
X132025505Y-86220080D01*
X132054500Y-86074312D01*
X132054500Y-84140933D01*
X132074185Y-84073894D01*
X132113400Y-84035396D01*
X132221003Y-83969026D01*
X132344026Y-83846003D01*
X132435362Y-83697925D01*
X132490087Y-83532775D01*
X132500500Y-83430848D01*
X132500500Y-82844152D01*
X132490087Y-82742225D01*
X132435362Y-82577075D01*
X132435358Y-82577069D01*
X132435357Y-82577066D01*
X132344028Y-82429000D01*
X132344025Y-82428996D01*
X132221004Y-82305975D01*
X132221003Y-82305974D01*
X132220301Y-82305541D01*
X132219921Y-82305118D01*
X132215336Y-82301493D01*
X132215955Y-82300709D01*
X132173575Y-82253598D01*
X132162349Y-82184636D01*
X132190188Y-82120552D01*
X132215455Y-82098657D01*
X132215336Y-82098507D01*
X132218687Y-82095856D01*
X132220299Y-82094459D01*
X132221003Y-82094026D01*
X132344026Y-81971003D01*
X132435362Y-81822925D01*
X132490087Y-81657775D01*
X132500500Y-81555848D01*
X132500500Y-80969152D01*
X132490087Y-80867225D01*
X132435362Y-80702075D01*
X132435358Y-80702069D01*
X132435357Y-80702066D01*
X132344028Y-80554000D01*
X132344025Y-80553996D01*
X132221003Y-80430974D01*
X132220999Y-80430971D01*
X132107901Y-80361211D01*
X139249500Y-80361211D01*
X139249500Y-80603788D01*
X139281161Y-80844285D01*
X139343947Y-81078604D01*
X139436773Y-81302705D01*
X139436776Y-81302712D01*
X139558064Y-81512789D01*
X139558066Y-81512792D01*
X139558067Y-81512793D01*
X139705733Y-81705236D01*
X139705739Y-81705243D01*
X139877256Y-81876760D01*
X139877262Y-81876765D01*
X140069711Y-82024436D01*
X140279788Y-82145724D01*
X140503900Y-82238554D01*
X140738211Y-82301338D01*
X140918586Y-82325084D01*
X140978711Y-82333000D01*
X140978712Y-82333000D01*
X141221289Y-82333000D01*
X141269388Y-82326667D01*
X141461789Y-82301338D01*
X141696100Y-82238554D01*
X141920212Y-82145724D01*
X142130289Y-82024436D01*
X142322738Y-81876765D01*
X142494265Y-81705238D01*
X142641936Y-81512789D01*
X142763224Y-81302712D01*
X142856054Y-81078600D01*
X142918838Y-80844289D01*
X142950500Y-80603788D01*
X142950500Y-80361212D01*
X142918838Y-80120711D01*
X142856054Y-79886400D01*
X142763224Y-79662288D01*
X142641936Y-79452211D01*
X142534493Y-79312188D01*
X142494266Y-79259763D01*
X142494260Y-79259756D01*
X142322743Y-79088239D01*
X142322736Y-79088233D01*
X142130293Y-78940567D01*
X142130292Y-78940566D01*
X142130289Y-78940564D01*
X141920212Y-78819276D01*
X141920205Y-78819273D01*
X141696104Y-78726447D01*
X141461785Y-78663661D01*
X141221289Y-78632000D01*
X141221288Y-78632000D01*
X140978712Y-78632000D01*
X140978711Y-78632000D01*
X140738214Y-78663661D01*
X140503895Y-78726447D01*
X140279794Y-78819273D01*
X140279785Y-78819277D01*
X140069706Y-78940567D01*
X139877263Y-79088233D01*
X139877256Y-79088239D01*
X139705739Y-79259756D01*
X139705733Y-79259763D01*
X139558067Y-79452206D01*
X139436777Y-79662285D01*
X139436773Y-79662294D01*
X139343947Y-79886395D01*
X139281161Y-80120714D01*
X139249500Y-80361211D01*
X132107901Y-80361211D01*
X132072933Y-80339642D01*
X132072927Y-80339639D01*
X132072925Y-80339638D01*
X132072922Y-80339637D01*
X131907776Y-80284913D01*
X131805855Y-80274500D01*
X131805848Y-80274500D01*
X130794152Y-80274500D01*
X130794144Y-80274500D01*
X130692223Y-80284913D01*
X130527077Y-80339637D01*
X130527066Y-80339642D01*
X130379000Y-80430971D01*
X130378996Y-80430974D01*
X130255974Y-80553996D01*
X130255971Y-80554000D01*
X130164642Y-80702066D01*
X130164637Y-80702077D01*
X130109913Y-80867223D01*
X130099500Y-80969144D01*
X124512500Y-80969144D01*
X124512500Y-79424306D01*
X124521144Y-79394865D01*
X124527668Y-79364879D01*
X124531422Y-79359863D01*
X124532185Y-79357267D01*
X124548819Y-79336625D01*
X124586625Y-79298819D01*
X124647948Y-79265334D01*
X124674306Y-79262500D01*
X125009233Y-79262500D01*
X125076272Y-79282185D01*
X125108499Y-79312188D01*
X125142454Y-79357546D01*
X125257669Y-79443796D01*
X125257670Y-79443796D01*
X125257671Y-79443797D01*
X125392517Y-79494091D01*
X125392516Y-79494091D01*
X125399444Y-79494835D01*
X125452127Y-79500500D01*
X129547872Y-79500499D01*
X129607483Y-79494091D01*
X129742331Y-79443796D01*
X129857546Y-79357546D01*
X129943796Y-79242331D01*
X129994091Y-79107483D01*
X130000500Y-79047873D01*
X130000499Y-76952128D01*
X129994091Y-76892517D01*
X129970771Y-76829994D01*
X129943797Y-76757671D01*
X129943793Y-76757664D01*
X129857547Y-76642455D01*
X129857544Y-76642452D01*
X129742335Y-76556206D01*
X129742328Y-76556202D01*
X129607482Y-76505908D01*
X129607483Y-76505908D01*
X129547883Y-76499501D01*
X129547881Y-76499500D01*
X129547873Y-76499500D01*
X129547864Y-76499500D01*
X125452129Y-76499500D01*
X125452123Y-76499501D01*
X125392516Y-76505908D01*
X125257671Y-76556202D01*
X125257669Y-76556204D01*
X125142456Y-76642452D01*
X125142454Y-76642454D01*
X125108499Y-76687812D01*
X125052565Y-76729682D01*
X125009233Y-76737500D01*
X124204496Y-76737500D01*
X124204472Y-76737499D01*
X124199361Y-76737499D01*
X124000640Y-76737499D01*
X123935214Y-76747861D01*
X123804362Y-76768587D01*
X123615370Y-76829993D01*
X123615367Y-76829994D01*
X123438305Y-76920213D01*
X123277533Y-77037021D01*
X122287021Y-78027533D01*
X122170213Y-78188305D01*
X122079994Y-78365367D01*
X122079993Y-78365370D01*
X122018587Y-78554362D01*
X121987500Y-78750639D01*
X116700500Y-78750639D01*
X116700500Y-69997648D01*
X117499500Y-69997648D01*
X117499500Y-70202351D01*
X117531522Y-70404534D01*
X117594781Y-70599223D01*
X117687715Y-70781613D01*
X117808028Y-70947213D01*
X117952786Y-71091971D01*
X118107749Y-71204556D01*
X118118390Y-71212287D01*
X118234607Y-71271503D01*
X118300776Y-71305218D01*
X118300778Y-71305218D01*
X118300781Y-71305220D01*
X118405137Y-71339127D01*
X118495465Y-71368477D01*
X118596557Y-71384488D01*
X118697648Y-71400500D01*
X118697649Y-71400500D01*
X118902351Y-71400500D01*
X118902352Y-71400500D01*
X119104534Y-71368477D01*
X119299219Y-71305220D01*
X119481610Y-71212287D01*
X119574590Y-71144732D01*
X119647213Y-71091971D01*
X119647215Y-71091968D01*
X119647219Y-71091966D01*
X119791966Y-70947219D01*
X119791968Y-70947215D01*
X119791971Y-70947213D01*
X119844732Y-70874590D01*
X119912287Y-70781610D01*
X120005220Y-70599219D01*
X120068477Y-70404534D01*
X120100500Y-70202352D01*
X120100500Y-70131902D01*
X121499500Y-70131902D01*
X121499500Y-71868097D01*
X121536446Y-72101368D01*
X121609433Y-72325996D01*
X121716657Y-72536433D01*
X121855483Y-72727510D01*
X122022490Y-72894517D01*
X122213567Y-73033343D01*
X122312991Y-73084002D01*
X122424003Y-73140566D01*
X122424005Y-73140566D01*
X122424008Y-73140568D01*
X122544412Y-73179689D01*
X122648631Y-73213553D01*
X122881903Y-73250500D01*
X122881908Y-73250500D01*
X123118097Y-73250500D01*
X123351368Y-73213553D01*
X123575992Y-73140568D01*
X123786433Y-73033343D01*
X123977510Y-72894517D01*
X124144517Y-72727510D01*
X124283343Y-72536433D01*
X124390568Y-72325992D01*
X124463553Y-72101368D01*
X124500500Y-71868097D01*
X124500500Y-70131902D01*
X130499500Y-70131902D01*
X130499500Y-71868097D01*
X130536446Y-72101368D01*
X130609433Y-72325996D01*
X130716657Y-72536433D01*
X130855483Y-72727510D01*
X131022490Y-72894517D01*
X131213567Y-73033343D01*
X131312991Y-73084002D01*
X131424003Y-73140566D01*
X131424005Y-73140566D01*
X131424008Y-73140568D01*
X131544412Y-73179689D01*
X131648631Y-73213553D01*
X131881903Y-73250500D01*
X131881908Y-73250500D01*
X132118097Y-73250500D01*
X132351368Y-73213553D01*
X132575992Y-73140568D01*
X132786433Y-73033343D01*
X132977510Y-72894517D01*
X133144517Y-72727510D01*
X133283343Y-72536433D01*
X133390568Y-72325992D01*
X133463553Y-72101368D01*
X133500500Y-71868097D01*
X133500500Y-70131902D01*
X133481537Y-70012174D01*
X133479236Y-69997648D01*
X151599500Y-69997648D01*
X151599500Y-70202351D01*
X151631522Y-70404534D01*
X151694781Y-70599223D01*
X151787715Y-70781613D01*
X151908028Y-70947213D01*
X152052786Y-71091971D01*
X152207749Y-71204556D01*
X152218390Y-71212287D01*
X152334607Y-71271503D01*
X152400776Y-71305218D01*
X152400778Y-71305218D01*
X152400781Y-71305220D01*
X152505137Y-71339127D01*
X152595465Y-71368477D01*
X152696557Y-71384488D01*
X152797648Y-71400500D01*
X152797649Y-71400500D01*
X153002351Y-71400500D01*
X153002352Y-71400500D01*
X153204534Y-71368477D01*
X153399219Y-71305220D01*
X153581610Y-71212287D01*
X153674590Y-71144732D01*
X153747213Y-71091971D01*
X153747215Y-71091968D01*
X153747219Y-71091966D01*
X153891966Y-70947219D01*
X153891968Y-70947215D01*
X153891971Y-70947213D01*
X153944732Y-70874590D01*
X154012287Y-70781610D01*
X154105220Y-70599219D01*
X154168477Y-70404534D01*
X154200500Y-70202352D01*
X154200500Y-69997648D01*
X154168477Y-69795465D01*
X154127599Y-69669657D01*
X154105220Y-69600781D01*
X154105218Y-69600778D01*
X154105218Y-69600776D01*
X154071503Y-69534607D01*
X154012287Y-69418390D01*
X154004556Y-69407749D01*
X153891971Y-69252786D01*
X153747213Y-69108028D01*
X153581613Y-68987715D01*
X153581612Y-68987714D01*
X153581610Y-68987713D01*
X153524653Y-68958691D01*
X153399223Y-68894781D01*
X153204534Y-68831522D01*
X153029995Y-68803878D01*
X153002352Y-68799500D01*
X152797648Y-68799500D01*
X152773329Y-68803351D01*
X152595465Y-68831522D01*
X152400776Y-68894781D01*
X152218386Y-68987715D01*
X152052786Y-69108028D01*
X151908028Y-69252786D01*
X151787715Y-69418386D01*
X151694781Y-69600776D01*
X151631522Y-69795465D01*
X151599500Y-69997648D01*
X133479236Y-69997648D01*
X133463553Y-69898631D01*
X133390566Y-69674003D01*
X133334002Y-69562991D01*
X133283343Y-69463567D01*
X133144517Y-69272490D01*
X132977510Y-69105483D01*
X132786433Y-68966657D01*
X132575996Y-68859433D01*
X132351368Y-68786446D01*
X132118097Y-68749500D01*
X132118092Y-68749500D01*
X131881908Y-68749500D01*
X131881903Y-68749500D01*
X131648631Y-68786446D01*
X131424003Y-68859433D01*
X131213566Y-68966657D01*
X131184583Y-68987715D01*
X131022490Y-69105483D01*
X131022488Y-69105485D01*
X131022487Y-69105485D01*
X130855485Y-69272487D01*
X130855485Y-69272488D01*
X130855483Y-69272490D01*
X130795862Y-69354550D01*
X130716657Y-69463566D01*
X130609433Y-69674003D01*
X130536446Y-69898631D01*
X130499500Y-70131902D01*
X124500500Y-70131902D01*
X124463553Y-69898631D01*
X124390566Y-69674003D01*
X124334002Y-69562991D01*
X124283343Y-69463567D01*
X124144517Y-69272490D01*
X123977510Y-69105483D01*
X123786433Y-68966657D01*
X123575996Y-68859433D01*
X123351368Y-68786446D01*
X123118097Y-68749500D01*
X123118092Y-68749500D01*
X122881908Y-68749500D01*
X122881903Y-68749500D01*
X122648631Y-68786446D01*
X122424003Y-68859433D01*
X122213566Y-68966657D01*
X122184583Y-68987715D01*
X122022490Y-69105483D01*
X122022488Y-69105485D01*
X122022487Y-69105485D01*
X121855485Y-69272487D01*
X121855485Y-69272488D01*
X121855483Y-69272490D01*
X121795862Y-69354550D01*
X121716657Y-69463566D01*
X121609433Y-69674003D01*
X121536446Y-69898631D01*
X121499500Y-70131902D01*
X120100500Y-70131902D01*
X120100500Y-69997648D01*
X120068477Y-69795465D01*
X120027599Y-69669657D01*
X120005220Y-69600781D01*
X120005218Y-69600778D01*
X120005218Y-69600776D01*
X119971503Y-69534607D01*
X119912287Y-69418390D01*
X119904556Y-69407749D01*
X119791971Y-69252786D01*
X119647213Y-69108028D01*
X119481613Y-68987715D01*
X119481612Y-68987714D01*
X119481610Y-68987713D01*
X119424653Y-68958691D01*
X119299223Y-68894781D01*
X119104534Y-68831522D01*
X118929995Y-68803878D01*
X118902352Y-68799500D01*
X118697648Y-68799500D01*
X118673329Y-68803351D01*
X118495465Y-68831522D01*
X118300776Y-68894781D01*
X118118386Y-68987715D01*
X117952786Y-69108028D01*
X117808028Y-69252786D01*
X117687715Y-69418386D01*
X117594781Y-69600776D01*
X117531522Y-69795465D01*
X117499500Y-69997648D01*
X116700500Y-69997648D01*
X116700500Y-68776741D01*
X116705994Y-68758030D01*
X116706533Y-68738532D01*
X116719453Y-68712192D01*
X116720185Y-68709702D01*
X116722043Y-68706894D01*
X116798377Y-68595037D01*
X116806564Y-68584339D01*
X117004573Y-68352898D01*
X117014175Y-68342873D01*
X117235005Y-68136783D01*
X117246010Y-68127643D01*
X117385622Y-68024698D01*
X117451261Y-68000755D01*
X117459212Y-68000500D01*
X126714505Y-68000500D01*
X126781544Y-68020185D01*
G37*
%TD.AperFunction*%
%TD*%
M02*
