%TF.GenerationSoftware,KiCad,Pcbnew,9.0.2*%
%TF.CreationDate,2025-06-25T22:40:44-04:00*%
%TF.ProjectId,NK_BMS,4e4b5f42-4d53-42e6-9b69-6361645f7063,rev?*%
%TF.SameCoordinates,Original*%
%TF.FileFunction,Copper,L2,Bot*%
%TF.FilePolarity,Positive*%
%FSLAX46Y46*%
G04 Gerber Fmt 4.6, Leading zero omitted, Abs format (unit mm)*
G04 Created by KiCad (PCBNEW 9.0.2) date 2025-06-25 22:40:44*
%MOMM*%
%LPD*%
G01*
G04 APERTURE LIST*
G04 Aperture macros list*
%AMRoundRect*
0 Rectangle with rounded corners*
0 $1 Rounding radius*
0 $2 $3 $4 $5 $6 $7 $8 $9 X,Y pos of 4 corners*
0 Add a 4 corners polygon primitive as box body*
4,1,4,$2,$3,$4,$5,$6,$7,$8,$9,$2,$3,0*
0 Add four circle primitives for the rounded corners*
1,1,$1+$1,$2,$3*
1,1,$1+$1,$4,$5*
1,1,$1+$1,$6,$7*
1,1,$1+$1,$8,$9*
0 Add four rect primitives between the rounded corners*
20,1,$1+$1,$2,$3,$4,$5,0*
20,1,$1+$1,$4,$5,$6,$7,0*
20,1,$1+$1,$6,$7,$8,$9,0*
20,1,$1+$1,$8,$9,$2,$3,0*%
G04 Aperture macros list end*
%TA.AperFunction,ComponentPad*%
%ADD10C,1.270000*%
%TD*%
%TA.AperFunction,ComponentPad*%
%ADD11RoundRect,0.250000X1.250000X-1.250000X1.250000X1.250000X-1.250000X1.250000X-1.250000X-1.250000X0*%
%TD*%
%TA.AperFunction,ComponentPad*%
%ADD12C,3.000000*%
%TD*%
%TA.AperFunction,ComponentPad*%
%ADD13R,4.000000X2.000000*%
%TD*%
%TA.AperFunction,ComponentPad*%
%ADD14O,3.300000X2.000000*%
%TD*%
%TA.AperFunction,ComponentPad*%
%ADD15O,2.000000X3.500000*%
%TD*%
%TA.AperFunction,SMDPad,CuDef*%
%ADD16RoundRect,0.250000X-0.250000X-0.475000X0.250000X-0.475000X0.250000X0.475000X-0.250000X0.475000X0*%
%TD*%
%TA.AperFunction,SMDPad,CuDef*%
%ADD17RoundRect,0.162500X0.617500X0.162500X-0.617500X0.162500X-0.617500X-0.162500X0.617500X-0.162500X0*%
%TD*%
%TA.AperFunction,SMDPad,CuDef*%
%ADD18RoundRect,0.075000X0.390000X0.275000X-0.390000X0.275000X-0.390000X-0.275000X0.390000X-0.275000X0*%
%TD*%
%TA.AperFunction,SMDPad,CuDef*%
%ADD19RoundRect,0.075000X0.075000X0.275000X-0.075000X0.275000X-0.075000X-0.275000X0.075000X-0.275000X0*%
%TD*%
%TA.AperFunction,SMDPad,CuDef*%
%ADD20RoundRect,0.250000X0.450000X-0.262500X0.450000X0.262500X-0.450000X0.262500X-0.450000X-0.262500X0*%
%TD*%
%TA.AperFunction,ViaPad*%
%ADD21C,0.600000*%
%TD*%
%TA.AperFunction,Conductor*%
%ADD22C,1.524000*%
%TD*%
%TA.AperFunction,Conductor*%
%ADD23C,0.762000*%
%TD*%
%TA.AperFunction,Conductor*%
%ADD24C,1.016000*%
%TD*%
%TA.AperFunction,Conductor*%
%ADD25C,0.200000*%
%TD*%
%TA.AperFunction,Conductor*%
%ADD26C,1.270000*%
%TD*%
G04 APERTURE END LIST*
D10*
%TO.P,F1,1*%
%TO.N,Net-(CN1-Pin_1)*%
X123250000Y-81100000D03*
%TO.P,F1,2*%
%TO.N,+5V*%
X128350000Y-82700000D03*
%TD*%
D11*
%TO.P,CN2,1,Pin_1*%
%TO.N,/BAT+*%
X141100000Y-118882500D03*
D12*
%TO.P,CN2,2,Pin_2*%
%TO.N,GND*%
X141100000Y-69982500D03*
%TD*%
D13*
%TO.P,CN1,1,Pin_1*%
%TO.N,Net-(CN1-Pin_1)*%
X127500000Y-78000000D03*
D14*
%TO.P,CN1,2,Pin_2*%
%TO.N,GND*%
X127500000Y-72000000D03*
D15*
%TO.P,CN1,MP*%
%TO.N,N/C*%
X132000000Y-71000000D03*
X123000000Y-71000000D03*
%TD*%
D16*
%TO.P,C3,1*%
%TO.N,GND*%
X136700000Y-118900000D03*
%TO.P,C3,2*%
%TO.N,/BAT+*%
X138600000Y-118900000D03*
%TD*%
%TO.P,C1,1*%
%TO.N,GND*%
X124650000Y-84400000D03*
%TO.P,C1,2*%
%TO.N,+5V*%
X126550000Y-84400000D03*
%TD*%
D17*
%TO.P,U1,1,STAT*%
%TO.N,Net-(D2-K)*%
X131150000Y-86200000D03*
%TO.P,U1,2,VSS*%
%TO.N,GND*%
X131150000Y-87150000D03*
%TO.P,U1,3,VBAT*%
%TO.N,/BAT+*%
X131150000Y-88100000D03*
%TO.P,U1,4,VDD*%
%TO.N,+5V*%
X128450000Y-88100000D03*
%TO.P,U1,5,PROG*%
%TO.N,Net-(U1-PROG)*%
X128450000Y-86200000D03*
%TD*%
D16*
%TO.P,C2,1*%
%TO.N,GND*%
X124650000Y-88000000D03*
%TO.P,C2,2*%
%TO.N,+5V*%
X126550000Y-88000000D03*
%TD*%
D18*
%TO.P,D1,1,K*%
%TO.N,+5V*%
X126585000Y-82700000D03*
D19*
%TO.P,D1,2,A*%
%TO.N,GND*%
X125700000Y-82700000D03*
%TD*%
D20*
%TO.P,R2,1*%
%TO.N,+5V*%
X131300000Y-83112500D03*
%TO.P,R2,2*%
%TO.N,Net-(D2-A)*%
X131300000Y-81287500D03*
%TD*%
D21*
%TO.N,GND*%
X131900000Y-87200000D03*
X129800000Y-88200000D03*
X129800000Y-87150000D03*
X129800000Y-86200000D03*
X118700000Y-114300000D03*
X117700000Y-111300000D03*
X118700000Y-112300000D03*
X120700000Y-111300000D03*
X119700000Y-113300000D03*
X118700000Y-113300000D03*
X117700000Y-112300000D03*
X117700000Y-113300000D03*
X120700000Y-114300000D03*
X120700000Y-110300000D03*
X120700000Y-108300000D03*
X117700000Y-105300000D03*
X119700000Y-103300000D03*
X120700000Y-104300000D03*
X118700000Y-106300000D03*
X117700000Y-108300000D03*
X119700000Y-110300000D03*
X118700000Y-103300000D03*
X118700000Y-111300000D03*
X119700000Y-104300000D03*
X117700000Y-109300000D03*
X120700000Y-107300000D03*
X118700000Y-108300000D03*
X117700000Y-104300000D03*
X119700000Y-106300000D03*
X120700000Y-105300000D03*
X117700000Y-110300000D03*
X119700000Y-108300000D03*
X118700000Y-107300000D03*
X117700000Y-103300000D03*
X120700000Y-109300000D03*
X118700000Y-104300000D03*
X118700000Y-109300000D03*
X117700000Y-106300000D03*
X118700000Y-110300000D03*
X119700000Y-105300000D03*
X120700000Y-112300000D03*
X117700000Y-107300000D03*
X119700000Y-112300000D03*
X120700000Y-113300000D03*
X120700000Y-106300000D03*
X117700000Y-114300000D03*
X119700000Y-107300000D03*
X120700000Y-103300000D03*
X119700000Y-114300000D03*
X119700000Y-111300000D03*
X118700000Y-105300000D03*
X119700000Y-109300000D03*
%TO.N,Net-(D2-A)*%
X131300000Y-81300000D03*
%TO.N,Net-(D2-K)*%
X131200000Y-86200000D03*
%TO.N,GND*%
X122700000Y-114300000D03*
X125700000Y-104300000D03*
X123700000Y-109300000D03*
X130700000Y-109300000D03*
X125700000Y-111300000D03*
X126700000Y-104300000D03*
X125700000Y-112300000D03*
X124700000Y-103300000D03*
X127700000Y-112300000D03*
X123700000Y-112300000D03*
X121700000Y-107300000D03*
X130700000Y-112300000D03*
X129700000Y-110300000D03*
X121700000Y-114300000D03*
X124700000Y-112300000D03*
X123700000Y-107300000D03*
X129700000Y-104300000D03*
X129700000Y-109300000D03*
X124700000Y-106300000D03*
X124700000Y-113300000D03*
X130700000Y-111300000D03*
X128700000Y-113300000D03*
X123700000Y-105300000D03*
X123700000Y-111300000D03*
X127700000Y-110300000D03*
X129700000Y-114300000D03*
X127700000Y-103300000D03*
X122700000Y-105300000D03*
X123700000Y-114300000D03*
X122700000Y-110300000D03*
X121700000Y-106300000D03*
X122700000Y-109300000D03*
X129700000Y-112300000D03*
X122700000Y-104300000D03*
X126700000Y-108300000D03*
X124700000Y-109300000D03*
X122700000Y-107300000D03*
X123700000Y-106300000D03*
X121700000Y-103300000D03*
X127700000Y-108300000D03*
X129700000Y-111300000D03*
X126700000Y-114300000D03*
X128700000Y-106300000D03*
X121700000Y-104300000D03*
X125700000Y-107300000D03*
X123700000Y-108300000D03*
X125700000Y-108300000D03*
X127700000Y-106300000D03*
X125700000Y-110300000D03*
X126700000Y-103300000D03*
X121700000Y-110300000D03*
X126700000Y-109300000D03*
X124700000Y-105300000D03*
X126700000Y-111300000D03*
X122700000Y-108300000D03*
X121700000Y-108300000D03*
X128700000Y-111300000D03*
X122700000Y-111300000D03*
X129700000Y-113300000D03*
X125700000Y-113300000D03*
X127700000Y-104300000D03*
X128700000Y-109300000D03*
X128700000Y-107300000D03*
X121700000Y-109300000D03*
X124700000Y-107300000D03*
X126700000Y-106300000D03*
X128700000Y-110300000D03*
X127700000Y-109300000D03*
X130700000Y-114300000D03*
X122700000Y-103300000D03*
X128700000Y-108300000D03*
X130700000Y-110300000D03*
X128700000Y-114300000D03*
X130700000Y-108300000D03*
X125700000Y-103300000D03*
X130700000Y-103300000D03*
X122700000Y-106300000D03*
X124700000Y-104300000D03*
X128700000Y-105300000D03*
X128700000Y-103300000D03*
X127700000Y-113300000D03*
X123700000Y-103300000D03*
X123700000Y-104300000D03*
X129700000Y-105300000D03*
X130700000Y-106300000D03*
X123700000Y-110300000D03*
X129700000Y-108300000D03*
X128700000Y-104300000D03*
X121700000Y-105300000D03*
X130700000Y-105300000D03*
X126700000Y-110300000D03*
X127700000Y-105300000D03*
X124700000Y-108300000D03*
X127700000Y-107300000D03*
X126700000Y-107300000D03*
X125700000Y-105300000D03*
X125700000Y-106300000D03*
X129700000Y-103300000D03*
X127700000Y-111300000D03*
X121700000Y-112300000D03*
X130700000Y-113300000D03*
X130700000Y-104300000D03*
X125700000Y-114300000D03*
X126700000Y-113300000D03*
X124700000Y-110300000D03*
X124700000Y-114300000D03*
X121700000Y-113300000D03*
X122700000Y-113300000D03*
X123700000Y-113300000D03*
X126700000Y-105300000D03*
X129700000Y-107300000D03*
X130700000Y-107300000D03*
X126700000Y-112300000D03*
X125700000Y-109300000D03*
X121700000Y-111300000D03*
X128700000Y-112300000D03*
X122700000Y-112300000D03*
X127700000Y-114300000D03*
X124700000Y-111300000D03*
X129700000Y-106300000D03*
%TO.N,Net-(U1-PROG)*%
X128450000Y-86200000D03*
%TD*%
D22*
%TO.N,/BAT+*%
X132800000Y-88900000D02*
X132800000Y-89750000D01*
D23*
X131150000Y-88100000D02*
X132000000Y-88100000D01*
X132000000Y-88100000D02*
X132800000Y-88900000D01*
D22*
X137500000Y-115000000D02*
X138600000Y-116100000D01*
X138600000Y-116100000D02*
X138600000Y-118900000D01*
X133900000Y-115000000D02*
X137500000Y-115000000D01*
X132800000Y-113900000D02*
X133900000Y-115000000D01*
X132800000Y-89750000D02*
X132800000Y-113900000D01*
D24*
%TO.N,+5V*%
X130887500Y-82700000D02*
X131300000Y-83112500D01*
X128350000Y-82700000D02*
X130887500Y-82700000D01*
D25*
%TO.N,Net-(D2-K)*%
X131150000Y-86200000D02*
X131200000Y-86200000D01*
D26*
%TO.N,+5V*%
X127335000Y-84365000D02*
X126585000Y-84365000D01*
D22*
X126550000Y-84400000D02*
X126550000Y-88000000D01*
D26*
X128350000Y-83350000D02*
X127335000Y-84365000D01*
X126585000Y-84365000D02*
X126550000Y-84400000D01*
X128350000Y-82700000D02*
X128350000Y-83350000D01*
D22*
X126550000Y-88000000D02*
X128350000Y-88000000D01*
X128350000Y-88000000D02*
X128450000Y-88100000D01*
D24*
X128350000Y-82700000D02*
X126686000Y-82700000D01*
D26*
%TO.N,/BAT+*%
X138600000Y-118900000D02*
X138700000Y-118900000D01*
X138717500Y-118882500D02*
X141100000Y-118882500D01*
X138700000Y-118900000D02*
X138717500Y-118882500D01*
%TD*%
%TA.AperFunction,Conductor*%
%TO.N,GND*%
G36*
X129853357Y-86545245D02*
G01*
X129905402Y-86591862D01*
X129918383Y-86620284D01*
X129923467Y-86636598D01*
X130006766Y-86774391D01*
X130120608Y-86888233D01*
X130120610Y-86888234D01*
X130120612Y-86888236D01*
X130258398Y-86971531D01*
X130412113Y-87019430D01*
X130478909Y-87025500D01*
X130817213Y-87025499D01*
X130828009Y-87028669D01*
X130839199Y-87027464D01*
X130860931Y-87038336D01*
X130884250Y-87045183D01*
X130891620Y-87053689D01*
X130901685Y-87058724D01*
X130914090Y-87079620D01*
X130930005Y-87097987D01*
X130931606Y-87109126D01*
X130937352Y-87118804D01*
X130936490Y-87143092D01*
X130939949Y-87167146D01*
X130935273Y-87177382D01*
X130934875Y-87188630D01*
X130921018Y-87208596D01*
X130910924Y-87230701D01*
X130900422Y-87238275D01*
X130895040Y-87246032D01*
X130864691Y-87264049D01*
X130862276Y-87265050D01*
X130814796Y-87274500D01*
X130478901Y-87274500D01*
X130412117Y-87280568D01*
X130412106Y-87280571D01*
X130258401Y-87328467D01*
X130120608Y-87411766D01*
X130006766Y-87525608D01*
X129923468Y-87663400D01*
X129918385Y-87679712D01*
X129879647Y-87737860D01*
X129815621Y-87765833D01*
X129746636Y-87754751D01*
X129694594Y-87708132D01*
X129681615Y-87679712D01*
X129678148Y-87668587D01*
X129676531Y-87663398D01*
X129593236Y-87525612D01*
X129593234Y-87525610D01*
X129593233Y-87525608D01*
X129568458Y-87500833D01*
X129545655Y-87469448D01*
X129529785Y-87438303D01*
X129412986Y-87277542D01*
X129412982Y-87277537D01*
X129306826Y-87171381D01*
X129273341Y-87110058D01*
X129278325Y-87040366D01*
X129320197Y-86984433D01*
X129335265Y-86975547D01*
X129335183Y-86975411D01*
X129341600Y-86971531D01*
X129341602Y-86971531D01*
X129479388Y-86888236D01*
X129593236Y-86774388D01*
X129676531Y-86636602D01*
X129681613Y-86620290D01*
X129720347Y-86562143D01*
X129784371Y-86534167D01*
X129853357Y-86545245D01*
G37*
%TD.AperFunction*%
%TA.AperFunction,Conductor*%
G36*
X126781544Y-68020185D02*
G01*
X126827299Y-68072989D01*
X126837243Y-68142147D01*
X126808218Y-68205703D01*
X126802186Y-68212181D01*
X126684025Y-68330341D01*
X126684024Y-68330342D01*
X126569058Y-68502403D01*
X126489870Y-68693579D01*
X126489868Y-68693587D01*
X126449500Y-68896530D01*
X126449500Y-69103469D01*
X126489868Y-69306412D01*
X126489870Y-69306420D01*
X126569058Y-69497596D01*
X126684024Y-69669657D01*
X126830342Y-69815975D01*
X126830345Y-69815977D01*
X127002402Y-69930941D01*
X127193580Y-70010130D01*
X127396530Y-70050499D01*
X127396534Y-70050500D01*
X127396535Y-70050500D01*
X127603466Y-70050500D01*
X127603467Y-70050499D01*
X127806420Y-70010130D01*
X127997598Y-69930941D01*
X128169655Y-69815977D01*
X128315977Y-69669655D01*
X128430941Y-69497598D01*
X128510130Y-69306420D01*
X128550500Y-69103465D01*
X128550500Y-68896535D01*
X128510130Y-68693580D01*
X128430941Y-68502402D01*
X128315977Y-68330345D01*
X128315975Y-68330342D01*
X128197814Y-68212181D01*
X128164329Y-68150858D01*
X128169313Y-68081166D01*
X128211185Y-68025233D01*
X128276649Y-68000816D01*
X128285495Y-68000500D01*
X154135736Y-68000500D01*
X154202775Y-68020185D01*
X154211595Y-68026411D01*
X154420317Y-68187872D01*
X154431465Y-68197616D01*
X154660046Y-68422895D01*
X154669377Y-68433185D01*
X154795873Y-68589461D01*
X154875058Y-68687287D01*
X154882679Y-68697780D01*
X154979507Y-68846941D01*
X154999499Y-68913887D01*
X154999500Y-68914456D01*
X154999500Y-121211857D01*
X154981203Y-121276687D01*
X154949833Y-121327835D01*
X154941138Y-121340241D01*
X154717662Y-121620926D01*
X154707636Y-121632065D01*
X154493189Y-121843134D01*
X154482023Y-121852881D01*
X154325759Y-121973622D01*
X154260675Y-121999035D01*
X154249943Y-121999500D01*
X117565653Y-121999500D01*
X117498614Y-121979815D01*
X117492355Y-121975517D01*
X117307471Y-121840023D01*
X117296479Y-121830952D01*
X117062038Y-121613670D01*
X117052385Y-121603661D01*
X116842300Y-121359818D01*
X116834024Y-121349076D01*
X116722281Y-121186355D01*
X116700558Y-121119948D01*
X116700500Y-121116160D01*
X116700500Y-119797648D01*
X117499500Y-119797648D01*
X117499500Y-120002351D01*
X117531522Y-120204534D01*
X117594781Y-120399223D01*
X117687715Y-120581613D01*
X117808028Y-120747213D01*
X117952786Y-120891971D01*
X118090420Y-120991966D01*
X118118390Y-121012287D01*
X118234607Y-121071503D01*
X118300776Y-121105218D01*
X118300778Y-121105218D01*
X118300781Y-121105220D01*
X118405137Y-121139127D01*
X118495465Y-121168477D01*
X118596557Y-121184488D01*
X118697648Y-121200500D01*
X118697649Y-121200500D01*
X118902351Y-121200500D01*
X118902352Y-121200500D01*
X119104534Y-121168477D01*
X119299219Y-121105220D01*
X119481610Y-121012287D01*
X119574590Y-120944732D01*
X119647213Y-120891971D01*
X119647215Y-120891968D01*
X119647219Y-120891966D01*
X119791966Y-120747219D01*
X119791968Y-120747215D01*
X119791971Y-120747213D01*
X119898085Y-120601157D01*
X119912287Y-120581610D01*
X120005220Y-120399219D01*
X120068477Y-120204534D01*
X120100500Y-120002352D01*
X120100500Y-119797648D01*
X120068477Y-119595466D01*
X120005220Y-119400781D01*
X120005218Y-119400778D01*
X120005218Y-119400776D01*
X119971503Y-119334607D01*
X119912287Y-119218390D01*
X119895755Y-119195636D01*
X119791971Y-119052786D01*
X119647213Y-118908028D01*
X119481613Y-118787715D01*
X119481612Y-118787714D01*
X119481610Y-118787713D01*
X119424653Y-118758691D01*
X119299223Y-118694781D01*
X119104534Y-118631522D01*
X118929995Y-118603878D01*
X118902352Y-118599500D01*
X118697648Y-118599500D01*
X118673329Y-118603351D01*
X118495465Y-118631522D01*
X118300776Y-118694781D01*
X118118386Y-118787715D01*
X117952786Y-118908028D01*
X117808028Y-119052786D01*
X117687715Y-119218386D01*
X117594781Y-119400776D01*
X117531522Y-119595465D01*
X117499500Y-119797648D01*
X116700500Y-119797648D01*
X116700500Y-84300639D01*
X125287500Y-84300639D01*
X125287500Y-88099360D01*
X125318587Y-88295637D01*
X125379993Y-88484629D01*
X125379994Y-88484632D01*
X125470213Y-88661694D01*
X125587019Y-88822464D01*
X125587021Y-88822466D01*
X125698694Y-88934139D01*
X125706159Y-88942527D01*
X125707288Y-88943656D01*
X125831344Y-89067712D01*
X125980666Y-89159814D01*
X126091690Y-89196604D01*
X126147202Y-89214999D01*
X126156213Y-89215919D01*
X126216680Y-89222096D01*
X126242389Y-89227521D01*
X126254364Y-89231413D01*
X126450639Y-89262500D01*
X127922631Y-89262500D01*
X127960949Y-89268569D01*
X127965367Y-89270004D01*
X127965368Y-89270005D01*
X128030996Y-89291329D01*
X128154362Y-89331413D01*
X128350634Y-89362500D01*
X128350639Y-89362500D01*
X128549365Y-89362500D01*
X128644515Y-89347428D01*
X128745636Y-89331413D01*
X128934632Y-89270005D01*
X129111694Y-89179786D01*
X129272463Y-89062981D01*
X129412981Y-88922463D01*
X129529786Y-88761694D01*
X129545654Y-88730550D01*
X129568455Y-88699167D01*
X129593236Y-88674388D01*
X129676531Y-88536602D01*
X129681613Y-88520290D01*
X129720347Y-88462143D01*
X129784371Y-88434167D01*
X129853357Y-88445245D01*
X129905402Y-88491862D01*
X129918383Y-88520284D01*
X129923467Y-88536598D01*
X130006766Y-88674391D01*
X130120608Y-88788233D01*
X130120610Y-88788234D01*
X130120612Y-88788236D01*
X130258398Y-88871531D01*
X130412113Y-88919430D01*
X130478909Y-88925500D01*
X130814796Y-88925499D01*
X130862248Y-88934938D01*
X130883296Y-88943656D01*
X130892876Y-88947624D01*
X130892880Y-88947624D01*
X130892881Y-88947625D01*
X131063177Y-88981500D01*
X131063180Y-88981500D01*
X131413500Y-88981500D01*
X131480539Y-89001185D01*
X131526294Y-89053989D01*
X131537500Y-89105500D01*
X131537500Y-89650639D01*
X131537500Y-113999361D01*
X131553043Y-114097498D01*
X131568587Y-114195637D01*
X131629993Y-114384629D01*
X131629994Y-114384632D01*
X131720213Y-114561694D01*
X131837019Y-114722464D01*
X131977536Y-114862981D01*
X131981866Y-114867311D01*
X131981877Y-114867321D01*
X132933893Y-115819337D01*
X132933907Y-115819352D01*
X132937018Y-115822463D01*
X132937019Y-115822464D01*
X133077536Y-115962981D01*
X133238306Y-116079787D01*
X133325149Y-116124035D01*
X133415367Y-116170005D01*
X133415370Y-116170006D01*
X133509866Y-116200709D01*
X133604364Y-116231413D01*
X133800639Y-116262500D01*
X133800640Y-116262500D01*
X133999361Y-116262500D01*
X136925694Y-116262500D01*
X136992733Y-116282185D01*
X137013375Y-116298819D01*
X137301181Y-116586625D01*
X137334666Y-116647948D01*
X137337500Y-116674306D01*
X137337500Y-118999360D01*
X137368587Y-119195637D01*
X137429993Y-119384629D01*
X137429994Y-119384632D01*
X137489176Y-119500781D01*
X137520213Y-119561694D01*
X137637019Y-119722464D01*
X137637021Y-119722466D01*
X137748694Y-119834139D01*
X137756159Y-119842527D01*
X137757288Y-119843656D01*
X137881344Y-119967712D01*
X138030666Y-120059814D01*
X138141690Y-120096604D01*
X138197202Y-120114999D01*
X138206213Y-120115919D01*
X138266680Y-120122096D01*
X138292389Y-120127521D01*
X138304364Y-120131413D01*
X138500639Y-120162500D01*
X138500640Y-120162500D01*
X138699360Y-120162500D01*
X138699361Y-120162500D01*
X138895636Y-120131413D01*
X138907610Y-120127521D01*
X138933319Y-120122095D01*
X138968322Y-120118520D01*
X139037013Y-120131291D01*
X139087897Y-120179172D01*
X139104278Y-120229276D01*
X139110001Y-120285297D01*
X139110001Y-120285299D01*
X139147751Y-120399219D01*
X139165186Y-120451834D01*
X139257288Y-120601156D01*
X139381344Y-120725212D01*
X139530666Y-120817314D01*
X139697203Y-120872499D01*
X139799991Y-120883000D01*
X142400008Y-120882999D01*
X142502797Y-120872499D01*
X142669334Y-120817314D01*
X142818656Y-120725212D01*
X142942712Y-120601156D01*
X143034814Y-120451834D01*
X143089999Y-120285297D01*
X143100500Y-120182509D01*
X143100500Y-119897648D01*
X151599500Y-119897648D01*
X151599500Y-120102351D01*
X151631522Y-120304534D01*
X151694781Y-120499223D01*
X151787715Y-120681613D01*
X151908028Y-120847213D01*
X152052786Y-120991971D01*
X152207749Y-121104556D01*
X152218390Y-121112287D01*
X152328669Y-121168477D01*
X152400776Y-121205218D01*
X152400778Y-121205218D01*
X152400781Y-121205220D01*
X152505137Y-121239127D01*
X152595465Y-121268477D01*
X152647301Y-121276687D01*
X152797648Y-121300500D01*
X152797649Y-121300500D01*
X153002351Y-121300500D01*
X153002352Y-121300500D01*
X153204534Y-121268477D01*
X153399219Y-121205220D01*
X153581610Y-121112287D01*
X153674590Y-121044732D01*
X153747213Y-120991971D01*
X153747215Y-120991968D01*
X153747219Y-120991966D01*
X153891966Y-120847219D01*
X153891968Y-120847215D01*
X153891971Y-120847213D01*
X153944732Y-120774590D01*
X154012287Y-120681610D01*
X154105220Y-120499219D01*
X154168477Y-120304534D01*
X154200500Y-120102352D01*
X154200500Y-119897648D01*
X154184661Y-119797648D01*
X154168477Y-119695465D01*
X154105218Y-119500776D01*
X154046039Y-119384632D01*
X154012287Y-119318390D01*
X154004556Y-119307749D01*
X153891971Y-119152786D01*
X153747213Y-119008028D01*
X153581613Y-118887715D01*
X153581612Y-118887714D01*
X153581610Y-118887713D01*
X153524653Y-118858691D01*
X153399223Y-118794781D01*
X153204534Y-118731522D01*
X153029995Y-118703878D01*
X153002352Y-118699500D01*
X152797648Y-118699500D01*
X152773329Y-118703351D01*
X152595465Y-118731522D01*
X152400776Y-118794781D01*
X152218386Y-118887715D01*
X152052786Y-119008028D01*
X151908028Y-119152786D01*
X151787715Y-119318386D01*
X151694781Y-119500776D01*
X151631522Y-119695465D01*
X151599500Y-119897648D01*
X143100500Y-119897648D01*
X143100499Y-118794781D01*
X143100499Y-117582498D01*
X143100498Y-117582481D01*
X143089999Y-117479703D01*
X143089998Y-117479700D01*
X143034814Y-117313166D01*
X142942712Y-117163844D01*
X142818656Y-117039788D01*
X142669334Y-116947686D01*
X142502797Y-116892501D01*
X142502795Y-116892500D01*
X142400016Y-116882000D01*
X142400009Y-116882000D01*
X139986500Y-116882000D01*
X139919461Y-116862315D01*
X139873706Y-116809511D01*
X139862500Y-116758000D01*
X139862500Y-116000639D01*
X139831413Y-115804364D01*
X139770005Y-115615368D01*
X139770005Y-115615367D01*
X139679786Y-115438305D01*
X139562981Y-115277536D01*
X139422464Y-115137019D01*
X139422463Y-115137018D01*
X139419352Y-115133907D01*
X139419337Y-115133893D01*
X138467321Y-114181877D01*
X138467312Y-114181867D01*
X138462981Y-114177536D01*
X138322464Y-114037019D01*
X138161694Y-113920213D01*
X137984632Y-113829994D01*
X137984629Y-113829993D01*
X137795637Y-113768587D01*
X137697498Y-113753043D01*
X137599361Y-113737500D01*
X137599360Y-113737500D01*
X134474306Y-113737500D01*
X134407267Y-113717815D01*
X134386625Y-113701181D01*
X134098819Y-113413375D01*
X134065334Y-113352052D01*
X134062500Y-113325694D01*
X134062500Y-108261211D01*
X139249500Y-108261211D01*
X139249500Y-108503788D01*
X139281161Y-108744285D01*
X139343947Y-108978604D01*
X139436773Y-109202705D01*
X139436776Y-109202712D01*
X139558064Y-109412789D01*
X139558066Y-109412792D01*
X139558067Y-109412793D01*
X139705733Y-109605236D01*
X139705739Y-109605243D01*
X139877256Y-109776760D01*
X139877262Y-109776765D01*
X140069711Y-109924436D01*
X140279788Y-110045724D01*
X140503900Y-110138554D01*
X140738211Y-110201338D01*
X140918586Y-110225084D01*
X140978711Y-110233000D01*
X140978712Y-110233000D01*
X141221289Y-110233000D01*
X141269388Y-110226667D01*
X141461789Y-110201338D01*
X141696100Y-110138554D01*
X141920212Y-110045724D01*
X142130289Y-109924436D01*
X142322738Y-109776765D01*
X142494265Y-109605238D01*
X142641936Y-109412789D01*
X142763224Y-109202712D01*
X142856054Y-108978600D01*
X142918838Y-108744289D01*
X142950500Y-108503788D01*
X142950500Y-108261212D01*
X142918838Y-108020711D01*
X142856054Y-107786400D01*
X142763224Y-107562288D01*
X142641936Y-107352211D01*
X142494265Y-107159762D01*
X142494260Y-107159756D01*
X142322743Y-106988239D01*
X142322736Y-106988233D01*
X142130293Y-106840567D01*
X142130292Y-106840566D01*
X142130289Y-106840564D01*
X141920212Y-106719276D01*
X141920205Y-106719273D01*
X141696104Y-106626447D01*
X141461785Y-106563661D01*
X141221289Y-106532000D01*
X141221288Y-106532000D01*
X140978712Y-106532000D01*
X140978711Y-106532000D01*
X140738214Y-106563661D01*
X140503895Y-106626447D01*
X140279794Y-106719273D01*
X140279785Y-106719277D01*
X140069706Y-106840567D01*
X139877263Y-106988233D01*
X139877256Y-106988239D01*
X139705739Y-107159756D01*
X139705733Y-107159763D01*
X139558067Y-107352206D01*
X139436777Y-107562285D01*
X139436773Y-107562294D01*
X139343947Y-107786395D01*
X139281161Y-108020714D01*
X139249500Y-108261211D01*
X134062500Y-108261211D01*
X134062500Y-88800639D01*
X134048628Y-88713054D01*
X134031413Y-88604364D01*
X133970005Y-88415368D01*
X133970005Y-88415367D01*
X133879786Y-88238305D01*
X133762981Y-88077536D01*
X133622464Y-87937019D01*
X133461694Y-87820213D01*
X133455610Y-87817113D01*
X133284632Y-87729994D01*
X133284629Y-87729993D01*
X133095637Y-87668587D01*
X132997498Y-87653043D01*
X132899361Y-87637500D01*
X132899360Y-87637500D01*
X132835492Y-87637500D01*
X132768453Y-87617815D01*
X132747811Y-87601181D01*
X132561927Y-87415296D01*
X132561926Y-87415295D01*
X132417543Y-87318822D01*
X132257128Y-87252377D01*
X132257118Y-87252374D01*
X132086823Y-87218500D01*
X132086821Y-87218500D01*
X132086820Y-87218500D01*
X132063783Y-87218500D01*
X131996744Y-87198815D01*
X131950989Y-87146011D01*
X131941045Y-87076853D01*
X131970070Y-87013297D01*
X132026892Y-86976115D01*
X132029790Y-86975211D01*
X132041602Y-86971531D01*
X132179388Y-86888236D01*
X132293236Y-86774388D01*
X132376531Y-86636602D01*
X132424430Y-86482887D01*
X132430500Y-86416091D01*
X132430499Y-85983910D01*
X132430499Y-85983909D01*
X132430499Y-85983901D01*
X132424431Y-85917117D01*
X132424428Y-85917106D01*
X132376532Y-85763401D01*
X132376531Y-85763400D01*
X132376531Y-85763398D01*
X132293236Y-85625612D01*
X132293234Y-85625610D01*
X132293233Y-85625608D01*
X132179391Y-85511766D01*
X132041602Y-85428469D01*
X132041596Y-85428467D01*
X131887887Y-85380570D01*
X131887885Y-85380569D01*
X131887883Y-85380569D01*
X131841117Y-85376319D01*
X131821091Y-85374500D01*
X131821088Y-85374500D01*
X130478901Y-85374500D01*
X130412117Y-85380568D01*
X130412106Y-85380571D01*
X130258401Y-85428467D01*
X130120608Y-85511766D01*
X130006766Y-85625608D01*
X129923468Y-85763400D01*
X129918385Y-85779712D01*
X129879647Y-85837860D01*
X129815621Y-85865833D01*
X129746636Y-85854751D01*
X129694594Y-85808132D01*
X129681615Y-85779712D01*
X129679602Y-85773254D01*
X129676531Y-85763398D01*
X129593236Y-85625612D01*
X129593234Y-85625610D01*
X129593233Y-85625608D01*
X129479391Y-85511766D01*
X129341602Y-85428469D01*
X129341596Y-85428467D01*
X129187887Y-85380570D01*
X129187885Y-85380569D01*
X129187883Y-85380569D01*
X129141117Y-85376319D01*
X129121091Y-85374500D01*
X129121088Y-85374500D01*
X128230701Y-85374500D01*
X128163662Y-85354815D01*
X128117907Y-85302011D01*
X128107963Y-85232853D01*
X128136988Y-85169297D01*
X128143020Y-85162819D01*
X128201111Y-85104728D01*
X129216111Y-84089728D01*
X129237845Y-84059814D01*
X129237847Y-84059812D01*
X129255737Y-84035187D01*
X129321167Y-83945132D01*
X129402309Y-83785881D01*
X129402313Y-83785868D01*
X129402648Y-83785062D01*
X129402861Y-83784797D01*
X129404521Y-83781540D01*
X129405204Y-83781888D01*
X129446481Y-83730653D01*
X129512773Y-83708580D01*
X129517215Y-83708500D01*
X130104717Y-83708500D01*
X130171756Y-83728185D01*
X130210254Y-83767401D01*
X130257288Y-83843656D01*
X130381344Y-83967712D01*
X130530666Y-84059814D01*
X130697203Y-84114999D01*
X130799991Y-84125500D01*
X131800008Y-84125499D01*
X131800016Y-84125498D01*
X131800019Y-84125498D01*
X131856302Y-84119748D01*
X131902797Y-84114999D01*
X132069334Y-84059814D01*
X132218656Y-83967712D01*
X132342712Y-83843656D01*
X132434814Y-83694334D01*
X132489999Y-83527797D01*
X132500500Y-83425009D01*
X132500499Y-82799992D01*
X132489999Y-82697203D01*
X132434814Y-82530666D01*
X132342712Y-82381344D01*
X132249049Y-82287681D01*
X132215564Y-82226358D01*
X132220548Y-82156666D01*
X132249049Y-82112319D01*
X132290202Y-82071166D01*
X132342712Y-82018656D01*
X132434814Y-81869334D01*
X132489999Y-81702797D01*
X132500500Y-81600009D01*
X132500499Y-80974992D01*
X132489999Y-80872203D01*
X132434814Y-80705666D01*
X132342712Y-80556344D01*
X132218656Y-80432288D01*
X132103421Y-80361211D01*
X139249500Y-80361211D01*
X139249500Y-80603788D01*
X139281161Y-80844285D01*
X139343947Y-81078604D01*
X139436773Y-81302705D01*
X139436776Y-81302712D01*
X139558064Y-81512789D01*
X139558066Y-81512792D01*
X139558067Y-81512793D01*
X139705733Y-81705236D01*
X139705739Y-81705243D01*
X139877256Y-81876760D01*
X139877262Y-81876765D01*
X140069711Y-82024436D01*
X140279788Y-82145724D01*
X140503900Y-82238554D01*
X140738211Y-82301338D01*
X140918586Y-82325084D01*
X140978711Y-82333000D01*
X140978712Y-82333000D01*
X141221289Y-82333000D01*
X141269388Y-82326667D01*
X141461789Y-82301338D01*
X141696100Y-82238554D01*
X141920212Y-82145724D01*
X142130289Y-82024436D01*
X142322738Y-81876765D01*
X142494265Y-81705238D01*
X142641936Y-81512789D01*
X142763224Y-81302712D01*
X142856054Y-81078600D01*
X142918838Y-80844289D01*
X142950500Y-80603788D01*
X142950500Y-80361212D01*
X142918838Y-80120711D01*
X142856054Y-79886400D01*
X142763224Y-79662288D01*
X142641936Y-79452211D01*
X142494265Y-79259762D01*
X142494260Y-79259756D01*
X142322743Y-79088239D01*
X142322736Y-79088233D01*
X142130293Y-78940567D01*
X142130292Y-78940566D01*
X142130289Y-78940564D01*
X141920212Y-78819276D01*
X141920205Y-78819273D01*
X141696104Y-78726447D01*
X141461785Y-78663661D01*
X141221289Y-78632000D01*
X141221288Y-78632000D01*
X140978712Y-78632000D01*
X140978711Y-78632000D01*
X140738214Y-78663661D01*
X140503895Y-78726447D01*
X140279794Y-78819273D01*
X140279785Y-78819277D01*
X140069706Y-78940567D01*
X139877263Y-79088233D01*
X139877256Y-79088239D01*
X139705739Y-79259756D01*
X139705733Y-79259763D01*
X139558067Y-79452206D01*
X139436777Y-79662285D01*
X139436773Y-79662294D01*
X139343947Y-79886395D01*
X139281161Y-80120714D01*
X139249500Y-80361211D01*
X132103421Y-80361211D01*
X132069334Y-80340186D01*
X131902797Y-80285001D01*
X131902795Y-80285000D01*
X131800010Y-80274500D01*
X130799998Y-80274500D01*
X130799980Y-80274501D01*
X130697203Y-80285000D01*
X130697200Y-80285001D01*
X130530668Y-80340185D01*
X130530663Y-80340187D01*
X130381342Y-80432289D01*
X130257289Y-80556342D01*
X130165187Y-80705663D01*
X130165186Y-80705666D01*
X130110001Y-80872203D01*
X130110001Y-80872204D01*
X130110000Y-80872204D01*
X130099500Y-80974983D01*
X130099500Y-80974996D01*
X130099501Y-81567500D01*
X130079817Y-81634539D01*
X130027013Y-81680294D01*
X129975501Y-81691500D01*
X128901631Y-81691500D01*
X128845336Y-81677985D01*
X128785878Y-81647689D01*
X128615900Y-81592460D01*
X128458307Y-81567500D01*
X128439366Y-81564500D01*
X128260634Y-81564500D01*
X128201790Y-81573820D01*
X128084101Y-81592460D01*
X128084098Y-81592460D01*
X127914121Y-81647689D01*
X127854664Y-81677985D01*
X127798369Y-81691500D01*
X126586666Y-81691500D01*
X126391838Y-81730254D01*
X126391830Y-81730256D01*
X126208294Y-81806279D01*
X126164295Y-81835678D01*
X126111593Y-81855514D01*
X126044764Y-81864313D01*
X126044763Y-81864313D01*
X125904770Y-81922300D01*
X125904767Y-81922301D01*
X125904767Y-81922302D01*
X125784549Y-82014549D01*
X125692300Y-82134770D01*
X125634313Y-82274763D01*
X125634313Y-82274764D01*
X125619500Y-82387272D01*
X125619500Y-83012727D01*
X125634313Y-83125235D01*
X125634313Y-83125236D01*
X125692300Y-83265230D01*
X125692302Y-83265234D01*
X125715583Y-83295573D01*
X125726951Y-83324978D01*
X125739984Y-83353683D01*
X125739453Y-83357316D01*
X125740778Y-83360742D01*
X125734443Y-83391626D01*
X125729889Y-83422819D01*
X125727275Y-83426574D01*
X125726740Y-83429187D01*
X125710742Y-83452468D01*
X125707908Y-83455723D01*
X125707288Y-83456344D01*
X125707091Y-83456661D01*
X125704552Y-83459580D01*
X125703927Y-83459979D01*
X125698700Y-83465852D01*
X125587021Y-83577532D01*
X125587015Y-83577539D01*
X125470215Y-83738302D01*
X125379994Y-83915367D01*
X125379993Y-83915370D01*
X125318587Y-84104362D01*
X125287500Y-84300639D01*
X116700500Y-84300639D01*
X116700500Y-81010634D01*
X122114500Y-81010634D01*
X122114500Y-81189365D01*
X122142460Y-81365898D01*
X122142460Y-81365901D01*
X122197689Y-81535878D01*
X122197691Y-81535881D01*
X122278833Y-81695132D01*
X122383889Y-81839728D01*
X122510272Y-81966111D01*
X122654868Y-82071167D01*
X122814119Y-82152309D01*
X122814121Y-82152310D01*
X122960897Y-82200000D01*
X122984103Y-82207540D01*
X123160634Y-82235500D01*
X123160635Y-82235500D01*
X123339365Y-82235500D01*
X123339366Y-82235500D01*
X123515897Y-82207540D01*
X123515900Y-82207539D01*
X123515901Y-82207539D01*
X123685878Y-82152310D01*
X123685878Y-82152309D01*
X123685881Y-82152309D01*
X123845132Y-82071167D01*
X123989728Y-81966111D01*
X124116111Y-81839728D01*
X124221167Y-81695132D01*
X124302309Y-81535881D01*
X124357540Y-81365897D01*
X124385500Y-81189366D01*
X124385500Y-81010634D01*
X124357540Y-80834103D01*
X124357539Y-80834099D01*
X124357539Y-80834098D01*
X124302310Y-80664121D01*
X124302308Y-80664118D01*
X124271569Y-80603788D01*
X124221167Y-80504868D01*
X124116111Y-80360272D01*
X123989728Y-80233889D01*
X123845132Y-80128833D01*
X123685881Y-80047691D01*
X123685878Y-80047689D01*
X123515899Y-79992460D01*
X123398209Y-79973820D01*
X123339366Y-79964500D01*
X123160634Y-79964500D01*
X123101790Y-79973820D01*
X122984101Y-79992460D01*
X122984098Y-79992460D01*
X122814121Y-80047689D01*
X122814118Y-80047691D01*
X122654867Y-80128833D01*
X122510270Y-80233890D01*
X122383890Y-80360270D01*
X122278833Y-80504867D01*
X122197691Y-80664118D01*
X122197689Y-80664121D01*
X122142460Y-80834098D01*
X122142460Y-80834101D01*
X122114500Y-81010634D01*
X116700500Y-81010634D01*
X116700500Y-76952135D01*
X124999500Y-76952135D01*
X124999500Y-79047870D01*
X124999501Y-79047876D01*
X125005908Y-79107483D01*
X125056202Y-79242328D01*
X125056206Y-79242335D01*
X125142452Y-79357544D01*
X125142455Y-79357547D01*
X125257664Y-79443793D01*
X125257671Y-79443797D01*
X125392517Y-79494091D01*
X125392516Y-79494091D01*
X125399444Y-79494835D01*
X125452127Y-79500500D01*
X129547872Y-79500499D01*
X129607483Y-79494091D01*
X129742331Y-79443796D01*
X129857546Y-79357546D01*
X129943796Y-79242331D01*
X129994091Y-79107483D01*
X130000500Y-79047873D01*
X130000499Y-76952128D01*
X129994091Y-76892517D01*
X129943796Y-76757669D01*
X129943795Y-76757668D01*
X129943793Y-76757664D01*
X129857547Y-76642455D01*
X129857544Y-76642452D01*
X129742335Y-76556206D01*
X129742328Y-76556202D01*
X129607482Y-76505908D01*
X129607483Y-76505908D01*
X129547883Y-76499501D01*
X129547881Y-76499500D01*
X129547873Y-76499500D01*
X129547864Y-76499500D01*
X125452129Y-76499500D01*
X125452123Y-76499501D01*
X125392516Y-76505908D01*
X125257671Y-76556202D01*
X125257664Y-76556206D01*
X125142455Y-76642452D01*
X125142452Y-76642455D01*
X125056206Y-76757664D01*
X125056202Y-76757671D01*
X125005908Y-76892517D01*
X124999501Y-76952116D01*
X124999501Y-76952123D01*
X124999500Y-76952135D01*
X116700500Y-76952135D01*
X116700500Y-69997648D01*
X117499500Y-69997648D01*
X117499500Y-70202351D01*
X117531522Y-70404534D01*
X117594781Y-70599223D01*
X117687715Y-70781613D01*
X117808028Y-70947213D01*
X117952786Y-71091971D01*
X118107749Y-71204556D01*
X118118390Y-71212287D01*
X118234607Y-71271503D01*
X118300776Y-71305218D01*
X118300778Y-71305218D01*
X118300781Y-71305220D01*
X118405137Y-71339127D01*
X118495465Y-71368477D01*
X118596557Y-71384488D01*
X118697648Y-71400500D01*
X118697649Y-71400500D01*
X118902351Y-71400500D01*
X118902352Y-71400500D01*
X119104534Y-71368477D01*
X119299219Y-71305220D01*
X119481610Y-71212287D01*
X119574590Y-71144732D01*
X119647213Y-71091971D01*
X119647215Y-71091968D01*
X119647219Y-71091966D01*
X119791966Y-70947219D01*
X119791968Y-70947215D01*
X119791971Y-70947213D01*
X119844732Y-70874590D01*
X119912287Y-70781610D01*
X120005220Y-70599219D01*
X120068477Y-70404534D01*
X120100500Y-70202352D01*
X120100500Y-70131902D01*
X121499500Y-70131902D01*
X121499500Y-71868097D01*
X121536446Y-72101368D01*
X121609433Y-72325996D01*
X121716657Y-72536433D01*
X121855483Y-72727510D01*
X122022490Y-72894517D01*
X122213567Y-73033343D01*
X122312991Y-73084002D01*
X122424003Y-73140566D01*
X122424005Y-73140566D01*
X122424008Y-73140568D01*
X122544412Y-73179689D01*
X122648631Y-73213553D01*
X122881903Y-73250500D01*
X122881908Y-73250500D01*
X123118097Y-73250500D01*
X123351368Y-73213553D01*
X123575992Y-73140568D01*
X123786433Y-73033343D01*
X123977510Y-72894517D01*
X124144517Y-72727510D01*
X124283343Y-72536433D01*
X124390568Y-72325992D01*
X124463553Y-72101368D01*
X124500500Y-71868097D01*
X124500500Y-70131902D01*
X130499500Y-70131902D01*
X130499500Y-71868097D01*
X130536446Y-72101368D01*
X130609433Y-72325996D01*
X130716657Y-72536433D01*
X130855483Y-72727510D01*
X131022490Y-72894517D01*
X131213567Y-73033343D01*
X131312991Y-73084002D01*
X131424003Y-73140566D01*
X131424005Y-73140566D01*
X131424008Y-73140568D01*
X131544412Y-73179689D01*
X131648631Y-73213553D01*
X131881903Y-73250500D01*
X131881908Y-73250500D01*
X132118097Y-73250500D01*
X132351368Y-73213553D01*
X132575992Y-73140568D01*
X132786433Y-73033343D01*
X132977510Y-72894517D01*
X133144517Y-72727510D01*
X133283343Y-72536433D01*
X133390568Y-72325992D01*
X133463553Y-72101368D01*
X133500500Y-71868097D01*
X133500500Y-70131902D01*
X133481537Y-70012174D01*
X133479236Y-69997648D01*
X151599500Y-69997648D01*
X151599500Y-70202351D01*
X151631522Y-70404534D01*
X151694781Y-70599223D01*
X151787715Y-70781613D01*
X151908028Y-70947213D01*
X152052786Y-71091971D01*
X152207749Y-71204556D01*
X152218390Y-71212287D01*
X152334607Y-71271503D01*
X152400776Y-71305218D01*
X152400778Y-71305218D01*
X152400781Y-71305220D01*
X152505137Y-71339127D01*
X152595465Y-71368477D01*
X152696557Y-71384488D01*
X152797648Y-71400500D01*
X152797649Y-71400500D01*
X153002351Y-71400500D01*
X153002352Y-71400500D01*
X153204534Y-71368477D01*
X153399219Y-71305220D01*
X153581610Y-71212287D01*
X153674590Y-71144732D01*
X153747213Y-71091971D01*
X153747215Y-71091968D01*
X153747219Y-71091966D01*
X153891966Y-70947219D01*
X153891968Y-70947215D01*
X153891971Y-70947213D01*
X153944732Y-70874590D01*
X154012287Y-70781610D01*
X154105220Y-70599219D01*
X154168477Y-70404534D01*
X154200500Y-70202352D01*
X154200500Y-69997648D01*
X154168477Y-69795465D01*
X154127599Y-69669657D01*
X154105220Y-69600781D01*
X154105218Y-69600778D01*
X154105218Y-69600776D01*
X154071503Y-69534607D01*
X154012287Y-69418390D01*
X154004556Y-69407749D01*
X153891971Y-69252786D01*
X153747213Y-69108028D01*
X153581613Y-68987715D01*
X153581612Y-68987714D01*
X153581610Y-68987713D01*
X153524653Y-68958691D01*
X153399223Y-68894781D01*
X153204534Y-68831522D01*
X153029995Y-68803878D01*
X153002352Y-68799500D01*
X152797648Y-68799500D01*
X152773329Y-68803351D01*
X152595465Y-68831522D01*
X152400776Y-68894781D01*
X152218386Y-68987715D01*
X152052786Y-69108028D01*
X151908028Y-69252786D01*
X151787715Y-69418386D01*
X151694781Y-69600776D01*
X151631522Y-69795465D01*
X151599500Y-69997648D01*
X133479236Y-69997648D01*
X133463553Y-69898631D01*
X133390566Y-69674003D01*
X133334002Y-69562991D01*
X133283343Y-69463567D01*
X133144517Y-69272490D01*
X132977510Y-69105483D01*
X132786433Y-68966657D01*
X132575996Y-68859433D01*
X132351368Y-68786446D01*
X132118097Y-68749500D01*
X132118092Y-68749500D01*
X131881908Y-68749500D01*
X131881903Y-68749500D01*
X131648631Y-68786446D01*
X131424003Y-68859433D01*
X131213566Y-68966657D01*
X131184583Y-68987715D01*
X131022490Y-69105483D01*
X131022488Y-69105485D01*
X131022487Y-69105485D01*
X130855485Y-69272487D01*
X130855485Y-69272488D01*
X130855483Y-69272490D01*
X130795862Y-69354550D01*
X130716657Y-69463566D01*
X130609433Y-69674003D01*
X130536446Y-69898631D01*
X130499500Y-70131902D01*
X124500500Y-70131902D01*
X124463553Y-69898631D01*
X124390566Y-69674003D01*
X124334002Y-69562991D01*
X124283343Y-69463567D01*
X124144517Y-69272490D01*
X123977510Y-69105483D01*
X123786433Y-68966657D01*
X123575996Y-68859433D01*
X123351368Y-68786446D01*
X123118097Y-68749500D01*
X123118092Y-68749500D01*
X122881908Y-68749500D01*
X122881903Y-68749500D01*
X122648631Y-68786446D01*
X122424003Y-68859433D01*
X122213566Y-68966657D01*
X122184583Y-68987715D01*
X122022490Y-69105483D01*
X122022488Y-69105485D01*
X122022487Y-69105485D01*
X121855485Y-69272487D01*
X121855485Y-69272488D01*
X121855483Y-69272490D01*
X121795862Y-69354550D01*
X121716657Y-69463566D01*
X121609433Y-69674003D01*
X121536446Y-69898631D01*
X121499500Y-70131902D01*
X120100500Y-70131902D01*
X120100500Y-69997648D01*
X120068477Y-69795465D01*
X120027599Y-69669657D01*
X120005220Y-69600781D01*
X120005218Y-69600778D01*
X120005218Y-69600776D01*
X119971503Y-69534607D01*
X119912287Y-69418390D01*
X119904556Y-69407749D01*
X119791971Y-69252786D01*
X119647213Y-69108028D01*
X119481613Y-68987715D01*
X119481612Y-68987714D01*
X119481610Y-68987713D01*
X119424653Y-68958691D01*
X119299223Y-68894781D01*
X119104534Y-68831522D01*
X118929995Y-68803878D01*
X118902352Y-68799500D01*
X118697648Y-68799500D01*
X118673329Y-68803351D01*
X118495465Y-68831522D01*
X118300776Y-68894781D01*
X118118386Y-68987715D01*
X117952786Y-69108028D01*
X117808028Y-69252786D01*
X117687715Y-69418386D01*
X117594781Y-69600776D01*
X117531522Y-69795465D01*
X117499500Y-69997648D01*
X116700500Y-69997648D01*
X116700500Y-68776741D01*
X116705994Y-68758030D01*
X116706533Y-68738532D01*
X116719453Y-68712192D01*
X116720185Y-68709702D01*
X116722043Y-68706894D01*
X116798377Y-68595037D01*
X116806564Y-68584339D01*
X117004573Y-68352898D01*
X117014175Y-68342873D01*
X117235005Y-68136783D01*
X117246010Y-68127643D01*
X117385622Y-68024698D01*
X117451261Y-68000755D01*
X117459212Y-68000500D01*
X126714505Y-68000500D01*
X126781544Y-68020185D01*
G37*
%TD.AperFunction*%
%TD*%
M02*
