%TF.GenerationSoftware,KiCad,Pcbnew,9.0.2*%
%TF.CreationDate,2025-06-25T22:40:44-04:00*%
%TF.ProjectId,NK_BMS,4e4b5f42-4d53-42e6-9b69-6361645f7063,rev?*%
%TF.SameCoordinates,Original*%
%TF.FileFunction,Legend,Top*%
%TF.FilePolarity,Positive*%
%FSLAX46Y46*%
G04 Gerber Fmt 4.6, Leading zero omitted, Abs format (unit mm)*
G04 Created by KiCad (PCBNEW 9.0.2) date 2025-06-25 22:40:44*
%MOMM*%
%LPD*%
G01*
G04 APERTURE LIST*
%ADD10C,0.150000*%
%ADD11C,0.120000*%
G04 APERTURE END LIST*
D10*
X130461905Y-85354819D02*
X130461905Y-84354819D01*
X130461905Y-84354819D02*
X130700000Y-84354819D01*
X130700000Y-84354819D02*
X130842857Y-84402438D01*
X130842857Y-84402438D02*
X130938095Y-84497676D01*
X130938095Y-84497676D02*
X130985714Y-84592914D01*
X130985714Y-84592914D02*
X131033333Y-84783390D01*
X131033333Y-84783390D02*
X131033333Y-84926247D01*
X131033333Y-84926247D02*
X130985714Y-85116723D01*
X130985714Y-85116723D02*
X130938095Y-85211961D01*
X130938095Y-85211961D02*
X130842857Y-85307200D01*
X130842857Y-85307200D02*
X130700000Y-85354819D01*
X130700000Y-85354819D02*
X130461905Y-85354819D01*
X131414286Y-84450057D02*
X131461905Y-84402438D01*
X131461905Y-84402438D02*
X131557143Y-84354819D01*
X131557143Y-84354819D02*
X131795238Y-84354819D01*
X131795238Y-84354819D02*
X131890476Y-84402438D01*
X131890476Y-84402438D02*
X131938095Y-84450057D01*
X131938095Y-84450057D02*
X131985714Y-84545295D01*
X131985714Y-84545295D02*
X131985714Y-84640533D01*
X131985714Y-84640533D02*
X131938095Y-84783390D01*
X131938095Y-84783390D02*
X131366667Y-85354819D01*
X131366667Y-85354819D02*
X131985714Y-85354819D01*
X121866666Y-84831009D02*
X121533333Y-84831009D01*
X121533333Y-85354819D02*
X121533333Y-84354819D01*
X121533333Y-84354819D02*
X122009523Y-84354819D01*
X122914285Y-85354819D02*
X122342857Y-85354819D01*
X122628571Y-85354819D02*
X122628571Y-84354819D01*
X122628571Y-84354819D02*
X122533333Y-84497676D01*
X122533333Y-84497676D02*
X122438095Y-84592914D01*
X122438095Y-84592914D02*
X122342857Y-84640533D01*
X149459580Y-119072976D02*
X149507200Y-119120595D01*
X149507200Y-119120595D02*
X149554819Y-119263452D01*
X149554819Y-119263452D02*
X149554819Y-119358690D01*
X149554819Y-119358690D02*
X149507200Y-119501547D01*
X149507200Y-119501547D02*
X149411961Y-119596785D01*
X149411961Y-119596785D02*
X149316723Y-119644404D01*
X149316723Y-119644404D02*
X149126247Y-119692023D01*
X149126247Y-119692023D02*
X148983390Y-119692023D01*
X148983390Y-119692023D02*
X148792914Y-119644404D01*
X148792914Y-119644404D02*
X148697676Y-119596785D01*
X148697676Y-119596785D02*
X148602438Y-119501547D01*
X148602438Y-119501547D02*
X148554819Y-119358690D01*
X148554819Y-119358690D02*
X148554819Y-119263452D01*
X148554819Y-119263452D02*
X148602438Y-119120595D01*
X148602438Y-119120595D02*
X148650057Y-119072976D01*
X149554819Y-118644404D02*
X148554819Y-118644404D01*
X148554819Y-118644404D02*
X149554819Y-118072976D01*
X149554819Y-118072976D02*
X148554819Y-118072976D01*
X148650057Y-117644404D02*
X148602438Y-117596785D01*
X148602438Y-117596785D02*
X148554819Y-117501547D01*
X148554819Y-117501547D02*
X148554819Y-117263452D01*
X148554819Y-117263452D02*
X148602438Y-117168214D01*
X148602438Y-117168214D02*
X148650057Y-117120595D01*
X148650057Y-117120595D02*
X148745295Y-117072976D01*
X148745295Y-117072976D02*
X148840533Y-117072976D01*
X148840533Y-117072976D02*
X148983390Y-117120595D01*
X148983390Y-117120595D02*
X149554819Y-117692023D01*
X149554819Y-117692023D02*
X149554819Y-117072976D01*
X131009523Y-80259580D02*
X130961904Y-80307200D01*
X130961904Y-80307200D02*
X130819047Y-80354819D01*
X130819047Y-80354819D02*
X130723809Y-80354819D01*
X130723809Y-80354819D02*
X130580952Y-80307200D01*
X130580952Y-80307200D02*
X130485714Y-80211961D01*
X130485714Y-80211961D02*
X130438095Y-80116723D01*
X130438095Y-80116723D02*
X130390476Y-79926247D01*
X130390476Y-79926247D02*
X130390476Y-79783390D01*
X130390476Y-79783390D02*
X130438095Y-79592914D01*
X130438095Y-79592914D02*
X130485714Y-79497676D01*
X130485714Y-79497676D02*
X130580952Y-79402438D01*
X130580952Y-79402438D02*
X130723809Y-79354819D01*
X130723809Y-79354819D02*
X130819047Y-79354819D01*
X130819047Y-79354819D02*
X130961904Y-79402438D01*
X130961904Y-79402438D02*
X131009523Y-79450057D01*
X131438095Y-80354819D02*
X131438095Y-79354819D01*
X131438095Y-79354819D02*
X132009523Y-80354819D01*
X132009523Y-80354819D02*
X132009523Y-79354819D01*
X133009523Y-80354819D02*
X132438095Y-80354819D01*
X132723809Y-80354819D02*
X132723809Y-79354819D01*
X132723809Y-79354819D02*
X132628571Y-79497676D01*
X132628571Y-79497676D02*
X132533333Y-79592914D01*
X132533333Y-79592914D02*
X132438095Y-79640533D01*
X128333333Y-90154819D02*
X128000000Y-89678628D01*
X127761905Y-90154819D02*
X127761905Y-89154819D01*
X127761905Y-89154819D02*
X128142857Y-89154819D01*
X128142857Y-89154819D02*
X128238095Y-89202438D01*
X128238095Y-89202438D02*
X128285714Y-89250057D01*
X128285714Y-89250057D02*
X128333333Y-89345295D01*
X128333333Y-89345295D02*
X128333333Y-89488152D01*
X128333333Y-89488152D02*
X128285714Y-89583390D01*
X128285714Y-89583390D02*
X128238095Y-89631009D01*
X128238095Y-89631009D02*
X128142857Y-89678628D01*
X128142857Y-89678628D02*
X127761905Y-89678628D01*
X129285714Y-90154819D02*
X128714286Y-90154819D01*
X129000000Y-90154819D02*
X129000000Y-89154819D01*
X129000000Y-89154819D02*
X128904762Y-89297676D01*
X128904762Y-89297676D02*
X128809524Y-89392914D01*
X128809524Y-89392914D02*
X128714286Y-89440533D01*
D11*
%TO.C,D2*%
X132260000Y-83885000D02*
X132260000Y-81200000D01*
X130340000Y-83885000D02*
X132260000Y-83885000D01*
X130340000Y-81200000D02*
X130340000Y-83885000D01*
%TO.C,F1*%
X121500000Y-79850000D02*
X121500000Y-83950000D01*
X121500000Y-79850000D02*
X130100000Y-79850000D01*
X121500000Y-83950000D02*
X130100000Y-83950000D01*
X130100000Y-79850000D02*
X130100000Y-83950000D01*
%TO.C,CN2*%
X132200000Y-114952500D02*
X132200000Y-120832500D01*
X132200000Y-114952500D02*
X134100000Y-114952500D01*
X134100000Y-68032500D02*
X134100000Y-114952500D01*
X134100000Y-68032500D02*
X150000000Y-68032500D01*
X140600000Y-121282500D02*
X141600000Y-121282500D01*
X140800000Y-120832500D02*
X132200000Y-120832500D01*
X141100000Y-120782500D02*
X141100000Y-121782500D01*
X148100000Y-120832500D02*
X141400000Y-120832500D01*
X148100000Y-120832500D02*
X148100000Y-73912500D01*
X150000000Y-73912500D02*
X148100000Y-73912500D01*
X150000000Y-73912500D02*
X150000000Y-68032500D01*
%TO.C,CN1*%
X122390000Y-65890000D02*
X132610000Y-65890000D01*
X122390000Y-68950000D02*
X122390000Y-65890000D01*
X122390000Y-79110000D02*
X122390000Y-73050000D01*
X125200000Y-79110000D02*
X122390000Y-79110000D01*
X128500000Y-79300000D02*
X126500000Y-79300000D01*
X132610000Y-65890000D02*
X132610000Y-68950000D01*
X132610000Y-73050000D02*
X132610000Y-79110000D01*
X132610000Y-79110000D02*
X129800000Y-79110000D01*
%TO.C,R1*%
X127765000Y-86922936D02*
X127765000Y-87377064D01*
X129235000Y-86922936D02*
X129235000Y-87377064D01*
%TD*%
M02*
