%TF.GenerationSoftware,KiCad,Pcbnew,9.0.2*%
%TF.CreationDate,2025-06-25T22:40:44-04:00*%
%TF.ProjectId,NK_BMS,4e4b5f42-4d53-42e6-9b69-6361645f7063,rev?*%
%TF.SameCoordinates,Original*%
%TF.FileFunction,Legend,Bot*%
%TF.FilePolarity,Positive*%
%FSLAX46Y46*%
G04 Gerber Fmt 4.6, Leading zero omitted, Abs format (unit mm)*
G04 Created by KiCad (PCBNEW 9.0.2) date 2025-06-25 22:40:44*
%MOMM*%
%LPD*%
G01*
G04 APERTURE LIST*
%ADD10C,0.150000*%
%ADD11C,0.120000*%
G04 APERTURE END LIST*
D10*
X135066666Y-119259580D02*
X135114285Y-119307200D01*
X135114285Y-119307200D02*
X135257142Y-119354819D01*
X135257142Y-119354819D02*
X135352380Y-119354819D01*
X135352380Y-119354819D02*
X135495237Y-119307200D01*
X135495237Y-119307200D02*
X135590475Y-119211961D01*
X135590475Y-119211961D02*
X135638094Y-119116723D01*
X135638094Y-119116723D02*
X135685713Y-118926247D01*
X135685713Y-118926247D02*
X135685713Y-118783390D01*
X135685713Y-118783390D02*
X135638094Y-118592914D01*
X135638094Y-118592914D02*
X135590475Y-118497676D01*
X135590475Y-118497676D02*
X135495237Y-118402438D01*
X135495237Y-118402438D02*
X135352380Y-118354819D01*
X135352380Y-118354819D02*
X135257142Y-118354819D01*
X135257142Y-118354819D02*
X135114285Y-118402438D01*
X135114285Y-118402438D02*
X135066666Y-118450057D01*
X134733332Y-118354819D02*
X134114285Y-118354819D01*
X134114285Y-118354819D02*
X134447618Y-118735771D01*
X134447618Y-118735771D02*
X134304761Y-118735771D01*
X134304761Y-118735771D02*
X134209523Y-118783390D01*
X134209523Y-118783390D02*
X134161904Y-118831009D01*
X134161904Y-118831009D02*
X134114285Y-118926247D01*
X134114285Y-118926247D02*
X134114285Y-119164342D01*
X134114285Y-119164342D02*
X134161904Y-119259580D01*
X134161904Y-119259580D02*
X134209523Y-119307200D01*
X134209523Y-119307200D02*
X134304761Y-119354819D01*
X134304761Y-119354819D02*
X134590475Y-119354819D01*
X134590475Y-119354819D02*
X134685713Y-119307200D01*
X134685713Y-119307200D02*
X134733332Y-119259580D01*
X123116666Y-84759580D02*
X123164285Y-84807200D01*
X123164285Y-84807200D02*
X123307142Y-84854819D01*
X123307142Y-84854819D02*
X123402380Y-84854819D01*
X123402380Y-84854819D02*
X123545237Y-84807200D01*
X123545237Y-84807200D02*
X123640475Y-84711961D01*
X123640475Y-84711961D02*
X123688094Y-84616723D01*
X123688094Y-84616723D02*
X123735713Y-84426247D01*
X123735713Y-84426247D02*
X123735713Y-84283390D01*
X123735713Y-84283390D02*
X123688094Y-84092914D01*
X123688094Y-84092914D02*
X123640475Y-83997676D01*
X123640475Y-83997676D02*
X123545237Y-83902438D01*
X123545237Y-83902438D02*
X123402380Y-83854819D01*
X123402380Y-83854819D02*
X123307142Y-83854819D01*
X123307142Y-83854819D02*
X123164285Y-83902438D01*
X123164285Y-83902438D02*
X123116666Y-83950057D01*
X122164285Y-84854819D02*
X122735713Y-84854819D01*
X122449999Y-84854819D02*
X122449999Y-83854819D01*
X122449999Y-83854819D02*
X122545237Y-83997676D01*
X122545237Y-83997676D02*
X122640475Y-84092914D01*
X122640475Y-84092914D02*
X122735713Y-84140533D01*
X129111904Y-84154819D02*
X129111904Y-84964342D01*
X129111904Y-84964342D02*
X129064285Y-85059580D01*
X129064285Y-85059580D02*
X129016666Y-85107200D01*
X129016666Y-85107200D02*
X128921428Y-85154819D01*
X128921428Y-85154819D02*
X128730952Y-85154819D01*
X128730952Y-85154819D02*
X128635714Y-85107200D01*
X128635714Y-85107200D02*
X128588095Y-85059580D01*
X128588095Y-85059580D02*
X128540476Y-84964342D01*
X128540476Y-84964342D02*
X128540476Y-84154819D01*
X127540476Y-85154819D02*
X128111904Y-85154819D01*
X127826190Y-85154819D02*
X127826190Y-84154819D01*
X127826190Y-84154819D02*
X127921428Y-84297676D01*
X127921428Y-84297676D02*
X128016666Y-84392914D01*
X128016666Y-84392914D02*
X128111904Y-84440533D01*
X123116666Y-88309580D02*
X123164285Y-88357200D01*
X123164285Y-88357200D02*
X123307142Y-88404819D01*
X123307142Y-88404819D02*
X123402380Y-88404819D01*
X123402380Y-88404819D02*
X123545237Y-88357200D01*
X123545237Y-88357200D02*
X123640475Y-88261961D01*
X123640475Y-88261961D02*
X123688094Y-88166723D01*
X123688094Y-88166723D02*
X123735713Y-87976247D01*
X123735713Y-87976247D02*
X123735713Y-87833390D01*
X123735713Y-87833390D02*
X123688094Y-87642914D01*
X123688094Y-87642914D02*
X123640475Y-87547676D01*
X123640475Y-87547676D02*
X123545237Y-87452438D01*
X123545237Y-87452438D02*
X123402380Y-87404819D01*
X123402380Y-87404819D02*
X123307142Y-87404819D01*
X123307142Y-87404819D02*
X123164285Y-87452438D01*
X123164285Y-87452438D02*
X123116666Y-87500057D01*
X122735713Y-87500057D02*
X122688094Y-87452438D01*
X122688094Y-87452438D02*
X122592856Y-87404819D01*
X122592856Y-87404819D02*
X122354761Y-87404819D01*
X122354761Y-87404819D02*
X122259523Y-87452438D01*
X122259523Y-87452438D02*
X122211904Y-87500057D01*
X122211904Y-87500057D02*
X122164285Y-87595295D01*
X122164285Y-87595295D02*
X122164285Y-87690533D01*
X122164285Y-87690533D02*
X122211904Y-87833390D01*
X122211904Y-87833390D02*
X122783332Y-88404819D01*
X122783332Y-88404819D02*
X122164285Y-88404819D01*
X125038094Y-83154819D02*
X125038094Y-82154819D01*
X125038094Y-82154819D02*
X124799999Y-82154819D01*
X124799999Y-82154819D02*
X124657142Y-82202438D01*
X124657142Y-82202438D02*
X124561904Y-82297676D01*
X124561904Y-82297676D02*
X124514285Y-82392914D01*
X124514285Y-82392914D02*
X124466666Y-82583390D01*
X124466666Y-82583390D02*
X124466666Y-82726247D01*
X124466666Y-82726247D02*
X124514285Y-82916723D01*
X124514285Y-82916723D02*
X124561904Y-83011961D01*
X124561904Y-83011961D02*
X124657142Y-83107200D01*
X124657142Y-83107200D02*
X124799999Y-83154819D01*
X124799999Y-83154819D02*
X125038094Y-83154819D01*
X123514285Y-83154819D02*
X124085713Y-83154819D01*
X123799999Y-83154819D02*
X123799999Y-82154819D01*
X123799999Y-82154819D02*
X123895237Y-82297676D01*
X123895237Y-82297676D02*
X123990475Y-82392914D01*
X123990475Y-82392914D02*
X124085713Y-82440533D01*
X131466666Y-80354819D02*
X131799999Y-79878628D01*
X132038094Y-80354819D02*
X132038094Y-79354819D01*
X132038094Y-79354819D02*
X131657142Y-79354819D01*
X131657142Y-79354819D02*
X131561904Y-79402438D01*
X131561904Y-79402438D02*
X131514285Y-79450057D01*
X131514285Y-79450057D02*
X131466666Y-79545295D01*
X131466666Y-79545295D02*
X131466666Y-79688152D01*
X131466666Y-79688152D02*
X131514285Y-79783390D01*
X131514285Y-79783390D02*
X131561904Y-79831009D01*
X131561904Y-79831009D02*
X131657142Y-79878628D01*
X131657142Y-79878628D02*
X132038094Y-79878628D01*
X131085713Y-79450057D02*
X131038094Y-79402438D01*
X131038094Y-79402438D02*
X130942856Y-79354819D01*
X130942856Y-79354819D02*
X130704761Y-79354819D01*
X130704761Y-79354819D02*
X130609523Y-79402438D01*
X130609523Y-79402438D02*
X130561904Y-79450057D01*
X130561904Y-79450057D02*
X130514285Y-79545295D01*
X130514285Y-79545295D02*
X130514285Y-79640533D01*
X130514285Y-79640533D02*
X130561904Y-79783390D01*
X130561904Y-79783390D02*
X131133332Y-80354819D01*
X131133332Y-80354819D02*
X130514285Y-80354819D01*
D11*
%TO.C,C3*%
X137388748Y-118165000D02*
X137911252Y-118165000D01*
X137388748Y-119635000D02*
X137911252Y-119635000D01*
%TO.C,C1*%
X125338748Y-83665000D02*
X125861252Y-83665000D01*
X125338748Y-85135000D02*
X125861252Y-85135000D01*
%TO.C,U1*%
X129700000Y-85540000D02*
X128900000Y-85540000D01*
X129700000Y-85540000D02*
X130500000Y-85540000D01*
X130700000Y-88760000D02*
X128900000Y-88760000D01*
X131000000Y-85590000D02*
X130760000Y-85260000D01*
X131240000Y-85260000D01*
X131000000Y-85590000D01*
G36*
X131000000Y-85590000D02*
G01*
X130760000Y-85260000D01*
X131240000Y-85260000D01*
X131000000Y-85590000D01*
G37*
%TO.C,C2*%
X125338748Y-87265000D02*
X125861252Y-87265000D01*
X125338748Y-88735000D02*
X125861252Y-88735000D01*
%TO.C,D1*%
X125500000Y-82090000D02*
X127315000Y-82090000D01*
X127315000Y-82090000D02*
X127315000Y-83310000D01*
X127315000Y-83310000D02*
X125500000Y-83310000D01*
%TO.C,R2*%
X132035000Y-82427064D02*
X132035000Y-81972936D01*
X130565000Y-82427064D02*
X130565000Y-81972936D01*
%TD*%
M02*
